<svg xmlns="http://www.w3.org/2000/svg" xmlns:xlink="http://www.w3.org/1999/xlink" width="14" height="14" viewBox="0 0 14 14">
    <defs>
        <clipPath id="clip-path">
            <rect id="Rectangle_38" data-name="Rectangle 38" width="14" height="14" transform="translate(890.899 4045)" fill="#fff" stroke="#707070" stroke-width="1"/>
        </clipPath>
    </defs>
    <g id="Mask_Group_6" data-name="Mask Group 6" transform="translate(-890.899 -4045)" clip-path="url(#clip-path)">
        <path id="hook" d="M11.312,2.738,10.437.55A.875.875,0,0,0,9.625,0H4.375a.875.875,0,0,0-.812.55L2.688,2.738a.874.874,0,0,0,0,.65l.875,2.187a.875.875,0,0,0,.812.55h.438A.875.875,0,0,0,5.688,7h.438v.336a2.683,2.683,0,0,0,1.45,2.421,1.305,1.305,0,0,1,.737,1.18A1.347,1.347,0,0,1,7,12.25a1.314,1.314,0,0,1-1.312-1.312.875.875,0,0,0-1.75,0A3.066,3.066,0,0,0,7,14a3.1,3.1,0,0,0,3.063-3.063A3.043,3.043,0,0,0,8.343,8.185a.927.927,0,0,1-.468-.849V7h.438a.875.875,0,0,0,.875-.875h.438a.875.875,0,0,0,.812-.55l.875-2.187A.874.874,0,0,0,11.312,2.738ZM4.958,4.813H4.036L5.2,1.313h.922Zm1.92,0H5.955l1.167-3.5h.922Zm1.92,0H7.875l1.167-3.5h.922Z" transform="translate(890.899 4045)" fill="#7967ad"/>
    </g>
</svg>
