<?xml version="1.0" encoding="utf-8"?>
<!-- Generator: Adobe Illustrator 16.0.0, SVG Export Plug-In . SVG Version: 6.00 Build 0)  -->
<!DOCTYPE svg PUBLIC "-//W3C//DTD SVG 1.1//EN" "http://www.w3.org/Graphics/SVG/1.1/DTD/svg11.dtd">
<svg version="1.1" id="Layer_1" xmlns="http://www.w3.org/2000/svg" xmlns:xlink="http://www.w3.org/1999/xlink" x="0px" y="0px"
     width="154px" height="146px" viewBox="0 0 154 146" enable-background="new 0 0 154 146" xml:space="preserve">
<g>
	<path fill="none" stroke="#7967AD" stroke-width="3" stroke-miterlimit="10" d="M144.52,61.38L96.259,13.087
		c-4.941-4.772-11.427-7.394-18.314-7.394c-6.887,0-13.371,2.622-18.313,7.394L11.371,61.38c-5.192,4.55-5.712,12.448-1.163,17.639
		c1.217,1.388,2.672,2.441,4.251,3.153c3.344,1.507,5.432,4.901,5.432,8.568v31.673c0,10.282,8.334,18.616,18.616,18.616h39.438
		h39.439c10.281,0,18.615-8.334,18.615-18.616V90.741c0-3.667,2.088-7.062,5.432-8.568c1.579-0.712,3.035-1.766,4.252-3.153
		C150.232,73.828,149.712,65.931,144.52,61.38z"/>
    <path fill="#7967AD" d="M54.812,87.85c-2.036,1.196-4.653,1.794-7.852,1.794c-3.2,0-5.899-1.091-8.096-3.271
		c-2.198-2.182-3.297-5.203-3.297-9.065c0-3.861,1.059-6.972,3.176-9.332c2.116-2.358,4.79-3.538,8.022-3.538
		c3.232,0,5.728,0.823,7.49,2.472c1.761,1.648,2.642,3.652,2.642,6.011c0,5.235-3.006,7.853-9.017,7.853h-3.344
		c0,0.97,0.266,1.641,0.8,2.012c0.532,0.372,1.316,0.558,2.351,0.558c2.261,0,4.411-0.517,6.447-1.551
		c0.032-0.032,0.177,0.193,0.436,0.679c0.776,1.39,1.163,2.562,1.163,3.514C55.732,86.938,55.425,87.56,54.812,87.85 M48.752,73.841
		c0-1.356-0.663-2.036-1.988-2.036c-0.614,0-1.139,0.186-1.575,0.557c-0.436,0.373-0.654,0.914-0.654,1.625v1.503h2.617
		C48.219,75.489,48.752,74.939,48.752,73.841"/>
    <path fill="#7967AD" d="M57.889,65.067c-0.097-0.258,1.414-0.388,4.533-0.388c3.118,0,4.677,0.081,4.677,0.242l3.491,16.482
		l2.617-16.239c0.098-0.291,1.697-0.437,4.799-0.437c3.135,0,4.654,0.13,4.557,0.388l-6.835,23.705
		c-0.227,0.324-2.15,0.485-5.769,0.485c-3.619,0-5.558-0.243-5.817-0.728L57.889,65.067z"/>
    <path fill="#7967AD" d="M93.639,88.868c0,0.259-1.479,0.388-4.436,0.388s-4.436-0.112-4.436-0.339V65.115
		c0-0.226,1.479-0.339,4.436-0.339s4.436,0.096,4.436,0.291V88.868z"/>
    <path fill="#7967AD" d="M107.864,88.868c0,0.228-1.163,0.339-3.49,0.339c-3.231-0.097-4.847-0.273-4.847-0.533V72.969h-1.261
		c-0.841,0-1.39-0.711-1.648-2.134c-0.064-0.42-0.097-0.84-0.097-1.26c0-1.001,0.193-2.004,0.582-3.006
		c0.581-1.422,1.485-2.133,2.714-2.133s2.327,0.291,3.297,0.873c0.97,0.581,1.615,1.163,1.939,1.745
		c2.035-1.745,4.459-2.618,7.271-2.618s4.848,0.76,6.108,2.279c1.26,1.519,1.891,4.007,1.891,7.465v14.542
		c0,0.388-1.382,0.583-4.145,0.583c-2.764,0-4.145-0.195-4.145-0.583v-14.01c0-1.615-0.565-2.424-1.697-2.424
		c-0.323,0-0.775,0.139-1.357,0.412c-0.581,0.275-0.953,0.479-1.115,0.605V88.868z"/>
    <path fill="#7967AD" d="M93.639,58.746c0,2.45-1.986,4.043-4.436,4.043c-2.45,0-4.436-0.81-4.436-3.259
		c0-2.45,1.985-4.827,4.436-4.827C91.652,54.703,93.639,56.296,93.639,58.746"/>
    <path fill="#7967AD" d="M61.736,100.614c-0.905-1.615-1.357-2.933-1.357-3.951c0-1.018,0.274-1.672,0.824-1.963
		c1.842-0.808,4.37-1.212,7.586-1.212c3.216,0,5.485,0.751,6.811,2.254s1.988,3.726,1.988,6.666v7.659h1.648
		c0.549,0,0.977,0.323,1.284,0.969c0.307,0.647,0.461,1.536,0.461,2.667s-0.283,2.246-0.849,3.345s-1.333,1.647-2.303,1.647
		c-1.744,0-3.151-0.469-4.217-1.405c-0.485-0.388-0.857-0.856-1.115-1.406c-1.488,1.875-3.798,2.812-6.932,2.812
		c-2.36,0-4.347-0.84-5.963-2.521c-1.616-1.68-2.424-3.667-2.424-5.962c0-5.268,3.151-7.902,9.453-7.902h2.666v-0.484
		c0-0.84-0.138-1.382-0.412-1.624s-0.913-0.363-1.915-0.363C65.743,99.839,63.998,100.098,61.736,100.614 M65.614,109.534
		c0,0.711,0.194,1.252,0.582,1.624c0.388,0.371,0.88,0.557,1.478,0.557s1.139-0.242,1.624-0.727v-3.732h-1.357
		C66.39,107.256,65.614,108.016,65.614,109.534"/>
    <path fill="#7967AD" d="M83.184,101.729c-0.227,0-0.339-0.695-0.339-2.085c0-3.781,0.307-5.671,0.921-5.671h15.464
		c0.226,0,0.726,0.711,1.502,2.133s1.164,2.222,1.164,2.399s-0.017,0.283-0.049,0.314l-9.404,11.828l8.435-0.581
		c0.517,0,0.776,1.147,0.776,3.441c0,0.872-0.081,1.875-0.243,3.006s-0.437,1.696-0.823,1.696H85.074
		c-0.484,0-1.066-0.808-1.744-2.424c-0.68-1.615-1.019-2.594-1.019-2.933c0-0.34,2.538-3.468,2.604-3.532l6.752-7.884
		L83.184,101.729z"/>
    <path fill="#7967AD" d="M55.311,114.652c0,2.449-1.986,4.043-4.436,4.043c-2.449,0-4.435-0.81-4.435-3.26
		c0-2.449,1.986-4.827,4.435-4.827C53.325,110.608,55.311,112.203,55.311,114.652"/>
</g>
</svg>
