<?xml version="1.0" encoding="UTF-8"?>
<svg width="647px" height="392px" viewBox="0 0 647 392" version="1.1" xmlns="http://www.w3.org/2000/svg" xmlns:xlink="http://www.w3.org/1999/xlink">
    <!-- Generator: sketchtool 52.4 (67378) - http://www.bohemiancoding.com/sketch -->
    <title>B6E70709-A4FB-42CF-8DFA-809770A8BDCE</title>
    <desc>Created with sketchtool.</desc>
    <g id="Desktop-v.2" stroke="none" stroke-width="1" fill="none" fill-rule="evenodd">
        <g id="Метро" transform="translate(-135.000000, -445.000000)">
            <g id="Pop-up" transform="translate(40.000000, 269.000000)">
                <g id="Group-32" transform="translate(95.000000, 176.000000)">
                    <path d="M11.4629423,49.6859927 C10.0551677,51.5367876 8.13855027,52.9448602 5.98154594,53.7590372 L42.8852485,90.6698333 C44.2383243,88.844234 45.7893234,87.1604498 47.0178875,85.2470259 L11.4629423,49.6859927 Z" id="Fill-4" fill="#7F1F6B"></path>
                    <polygon id="Fill-30" fill="#EA0130" points="396.203898 87.5806724 356.680411 48.0488168 361.555082 43.1723934 401.07929 82.7042491"></polygon>
                    <polygon id="Fill-31" fill="#529C00" points="383.29318 86.8675657 350.581134 54.1485933 355.456525 49.2728898 388.168572 81.9911423"></polygon>
                    <path d="M643.06545,169.28344 L498.027961,24.2159634 C489.135806,15.3226457 476.823536,11.8550148 467.793195,12.1112898 C459.300485,12.3358903 449.224389,15.5270897 438.944612,25.8097634 L254.505268,210.287437 L242.825633,221.969545 L233.363459,231.434442 C228.331168,234.844483 222.372597,236.980348 215.943328,237.402914 L88.5526821,237.402914 C68.9035746,237.402914 52.9171281,221.413083 52.9171281,201.758375 L52.9171281,47.2260014 C52.9171281,27.571294 68.9035746,11.5814629 88.5526821,11.5814629 L281.142868,11.5814629 C281.070176,9.28290663 280.970135,6.9872299 281.013318,4.68651406 L88.5526821,4.68651406 C65.1020074,4.68651406 46.0229191,23.7696418 46.0229191,47.2260014 L46.0229191,201.758375 C46.0229191,225.215455 65.1020074,244.298583 88.5526821,244.298583 L216.330538,244.298583 C220.303399,243.993356 224.125838,243.148945 227.714367,241.820058 C229.346695,241.216084 230.927203,240.506289 232.45661,239.713708 C234.825932,238.484884 237.062106,237.040098 239.14282,235.402385 L246.255824,228.289315 L443.80273,30.702024 C451.662085,22.8402851 461.307068,19.1797281 467.976004,19.0026392 C475.053022,18.8233907 486.436852,22.3716474 493.291476,29.227723 L639.01414,174.981959 C639.670526,172.914482 641.974353,172.191729 643.459857,170.644001 C643.32527,170.435958 643.230986,170.201999 643.295761,169.993955 C643.203637,169.760716 643.128066,169.524598 643.06545,169.28344 Z" id="Fill-32" fill="#006F19"></path>
                    <path d="M636.204708,174.729283 C636.197991,174.688971 589.202358,127.626278 495.21781,33.5412053 C486.621461,24.9437556 477.676046,20.6878632 468.645705,20.9434183 C460.152995,21.1687387 451.787676,25.3425655 443.780778,33.3518786 L96.3785701,380.827639 C98.0094583,382.41928 99.8584219,383.84103 101.80023,385.154079 L448.656169,38.2268622 C455.371887,31.5082824 462.159578,28.0132964 468.828514,27.8362075 C475.905532,27.6562391 483.13801,31.208815 490.343858,38.4169088 L631.923807,180.025393 C632.470795,178.303456 634.405405,177.759951 635.934093,176.770845 C636.446535,175.426841 636.272362,175.118735 636.204708,174.729283 Z" id="Fill-34" fill="#EA0130"></path>
                    <g id="Group-26" transform="translate(361.294159, 97.100917)">
                        <path d="M8.83879071,15.2158934 C5.11325226,15.2132756 2.08649762,12.1858802 2.08388046,8.45955294 C2.08780621,4.73715229 5.11325226,1.71106569 8.83486496,1.7071391 C12.5656377,1.70452138 15.5976267,4.73846115 15.593701,8.45955294 C15.5923924,12.1845713 12.5630206,15.2132756 8.83879071,15.2158934" id="Fill-75" fill="#FFFFFE"></path>
                        <path d="M12.671633,4.62943303 C14.7836875,6.74193466 14.7836875,10.1737682 12.6637815,12.2888875 C10.5556528,14.402698 7.12062001,14.4013892 5.01118271,12.2915053 L3.11897035,14.1841182 C6.27527479,17.3371644 11.4049238,17.3384732 14.5559939,14.1815005 C17.7136069,11.0284544 17.7162241,5.89248388 14.5573025,2.7381289 L12.671633,4.62943303 Z" id="Fill-76" fill="#EA0130"></path>
                        <path d="M14.5571716,2.73839067 C11.4087187,-0.417273167 6.27252676,-0.419890889 3.1175309,2.73577295 C-0.0335392042,5.89274566 -0.037464956,11.0247896 3.11883949,14.18438 L5.01105185,12.291767 C2.89245447,10.1727211 2.90030597,6.74874074 5.01105185,4.6296948 C7.12179773,2.51326658 10.555522,2.51457545 12.6715022,4.6296948 L14.5571716,2.73839067 Z" id="Fill-77" fill="#529C00"></path>
                    </g>
                    <g id="Group-25" transform="translate(100.784423, 0.000000)">
                        <path d="M8.58878111,15.0475954 C4.86585982,15.0475954 1.8377966,12.018891 1.8377966,8.29256381 C1.8377966,4.5688543 4.86585982,1.54014998 8.58878111,1.54014998 C12.3143196,1.54014998 15.3449999,4.5688543 15.3449999,8.29256381 C15.3449999,12.018891 12.3143196,15.0475954 8.58878111,15.0475954" id="Fill-43" fill="#FFFFFE"></path>
                        <path d="M8.58878111,0.201054302 C4.12781848,0.201054302 0.500423823,3.83183468 0.500423823,8.29243293 C0.500423823,12.75434 4.12781848,16.3851204 8.58878111,16.3851204 C13.0497437,16.3851204 16.678447,12.75434 16.678447,8.29243293 C16.678447,3.83183468 13.0497437,0.201054302 8.58878111,0.201054302 M8.58878111,2.87767502 C11.580204,2.87767502 14.0076272,5.30299443 14.0076272,8.29243293 C14.0076272,11.2831803 11.580204,13.7084997 8.58878111,13.7084997 C5.59997541,13.7084997 3.17255221,11.2831803 3.17255221,8.29243293 C3.17255221,5.30299443 5.59997541,2.87767502 8.58878111,2.87767502" id="Fill-44" fill="#529C00"></path>
                    </g>
                    <g id="Group-21" transform="translate(206.968011, 0.000000)">
                        <path d="M8.16209576,15.0475954 C4.43917447,15.0475954 1.41111125,12.018891 1.41111125,8.29256381 C1.41111125,4.5688543 4.43917447,1.54014998 8.16209576,1.54014998 C11.8876342,1.54014998 14.9183146,4.5688543 14.9183146,8.29256381 C14.9183146,12.018891 11.8876342,15.0475954 8.16209576,15.0475954" id="Fill-45" fill="#FFFFFE"></path>
                        <path d="M8.16209576,0.201054302 C3.70113313,0.201054302 0.073738476,3.83183468 0.073738476,8.29243293 C0.073738476,12.75434 3.70113313,16.3851204 8.16209576,16.3851204 C12.6230584,16.3851204 16.2517616,12.75434 16.2517616,8.29243293 C16.2517616,3.83183468 12.6230584,0.201054302 8.16209576,0.201054302 M8.16209576,2.87767502 C11.1535186,2.87767502 13.5809418,5.30299443 13.5809418,8.29243293 C13.5809418,11.2831803 11.1535186,13.7084997 8.16209576,13.7084997 C5.17329006,13.7084997 2.74586686,11.2831803 2.74586686,8.29243293 C2.74586686,5.30299443 5.17329006,2.87767502 8.16209576,2.87767502" id="Fill-46" fill="#529C00"></path>
                    </g>
                    <g id="Group-21" transform="translate(273.557719, 0.000000)">
                        <path d="M8.54606335,15.2844037 C4.8257025,15.2844037 1.79972184,12.2604544 1.79972184,8.5399776 C1.79972184,4.82211436 4.8257025,1.79816514 8.54606335,1.79816514 C12.2690396,1.79816514 15.2976356,4.82211436 15.2976356,8.5399776 C15.2976356,12.2604544 12.2690396,15.2844037 8.54606335,15.2844037" id="Fill-45" fill="#FFFFFE"></path>
                        <path d="M8.09809318,0 C3.63176093,0 0,3.63065029 0,8.09108871 C0,12.5528359 3.63176093,16.1834862 8.09809318,16.1834862 C12.5644254,16.1834862 16.1974965,12.5528359 16.1974965,8.09108871 C16.1974965,3.63065029 12.5644254,0 8.09809318,0 M8.09809318,2.67652482 C11.0931168,2.67652482 13.5234619,5.10175733 13.5234619,8.09108871 C13.5234619,11.0817289 11.0931168,13.5069614 8.09809318,13.5069614 C5.10568988,13.5069614 2.67534481,11.0817289 2.67534481,8.09108871 C2.67534481,5.10175733 5.10568988,2.67652482 8.09809318,2.67652482" id="Fill-46" fill="#529C00"></path>
                    </g>
                    <g id="Group-21" transform="translate(41.000000, 128.000000)">
                        <path d="M8.16209576,15.0475954 C4.43917447,15.0475954 1.41111125,12.018891 1.41111125,8.29256381 C1.41111125,4.5688543 4.43917447,1.54014998 8.16209576,1.54014998 C11.8876342,1.54014998 14.9183146,4.5688543 14.9183146,8.29256381 C14.9183146,12.018891 11.8876342,15.0475954 8.16209576,15.0475954" id="Fill-45" fill="#FFFFFE"></path>
                        <path d="M8.16209576,0.201054302 C3.70113313,0.201054302 0.073738476,3.83183468 0.073738476,8.29243293 C0.073738476,12.75434 3.70113313,16.3851204 8.16209576,16.3851204 C12.6230584,16.3851204 16.2517616,12.75434 16.2517616,8.29243293 C16.2517616,3.83183468 12.6230584,0.201054302 8.16209576,0.201054302 M8.16209576,2.87767502 C11.1535186,2.87767502 13.5809418,5.30299443 13.5809418,8.29243293 C13.5809418,11.2831803 11.1535186,13.7084997 8.16209576,13.7084997 C5.17329006,13.7084997 2.74586686,11.2831803 2.74586686,8.29243293 C2.74586686,5.30299443 5.17329006,2.87767502 8.16209576,2.87767502" id="Fill-46" fill="#529C00"></path>
                    </g>
                    <g id="Group-21" transform="translate(41.000000, 172.000000)">
                        <path d="M8.16209576,15.0475954 C4.43917447,15.0475954 1.41111125,12.018891 1.41111125,8.29256381 C1.41111125,4.5688543 4.43917447,1.54014998 8.16209576,1.54014998 C11.8876342,1.54014998 14.9183146,4.5688543 14.9183146,8.29256381 C14.9183146,12.018891 11.8876342,15.0475954 8.16209576,15.0475954" id="Fill-45" fill="#FFFFFE"></path>
                        <path d="M8.16209576,0.201054302 C3.70113313,0.201054302 0.073738476,3.83183468 0.073738476,8.29243293 C0.073738476,12.75434 3.70113313,16.3851204 8.16209576,16.3851204 C12.6230584,16.3851204 16.2517616,12.75434 16.2517616,8.29243293 C16.2517616,3.83183468 12.6230584,0.201054302 8.16209576,0.201054302 M8.16209576,2.87767502 C11.1535186,2.87767502 13.5809418,5.30299443 13.5809418,8.29243293 C13.5809418,11.2831803 11.1535186,13.7084997 8.16209576,13.7084997 C5.17329006,13.7084997 2.74586686,11.2831803 2.74586686,8.29243293 C2.74586686,5.30299443 5.17329006,2.87767502 8.16209576,2.87767502" id="Fill-46" fill="#529C00"></path>
                    </g>
                    <g id="Group-21" transform="translate(52.191933, 221.174312)">
                        <path d="M8.16209576,15.0475954 C4.43917447,15.0475954 1.41111125,12.018891 1.41111125,8.29256381 C1.41111125,4.5688543 4.43917447,1.54014998 8.16209576,1.54014998 C11.8876342,1.54014998 14.9183146,4.5688543 14.9183146,8.29256381 C14.9183146,12.018891 11.8876342,15.0475954 8.16209576,15.0475954" id="Fill-45" fill="#FFFFFE"></path>
                        <path d="M8.16209576,0.201054302 C3.70113313,0.201054302 0.073738476,3.83183468 0.073738476,8.29243293 C0.073738476,12.75434 3.70113313,16.3851204 8.16209576,16.3851204 C12.6230584,16.3851204 16.2517616,12.75434 16.2517616,8.29243293 C16.2517616,3.83183468 12.6230584,0.201054302 8.16209576,0.201054302 M8.16209576,2.87767502 C11.1535186,2.87767502 13.5809418,5.30299443 13.5809418,8.29243293 C13.5809418,11.2831803 11.1535186,13.7084997 8.16209576,13.7084997 C5.17329006,13.7084997 2.74586686,11.2831803 2.74586686,8.29243293 C2.74586686,5.30299443 5.17329006,2.87767502 8.16209576,2.87767502" id="Fill-46" fill="#529C00"></path>
                    </g>
                    <g id="Group-21" transform="translate(116.082058, 231.963303)">
                        <path d="M8.16209576,15.0475954 C4.43917447,15.0475954 1.41111125,12.018891 1.41111125,8.29256381 C1.41111125,4.5688543 4.43917447,1.54014998 8.16209576,1.54014998 C11.8876342,1.54014998 14.9183146,4.5688543 14.9183146,8.29256381 C14.9183146,12.018891 11.8876342,15.0475954 8.16209576,15.0475954" id="Fill-45" fill="#FFFFFE"></path>
                        <path d="M8.16209576,0.201054302 C3.70113313,0.201054302 0.073738476,3.83183468 0.073738476,8.29243293 C0.073738476,12.75434 3.70113313,16.3851204 8.16209576,16.3851204 C12.6230584,16.3851204 16.2517616,12.75434 16.2517616,8.29243293 C16.2517616,3.83183468 12.6230584,0.201054302 8.16209576,0.201054302 M8.16209576,2.87767502 C11.1535186,2.87767502 13.5809418,5.30299443 13.5809418,8.29243293 C13.5809418,11.2831803 11.1535186,13.7084997 8.16209576,13.7084997 C5.17329006,13.7084997 2.74586686,11.2831803 2.74586686,8.29243293 C2.74586686,5.30299443 5.17329006,2.87767502 8.16209576,2.87767502" id="Fill-46" fill="#529C00"></path>
                    </g>
                    <g id="Group-21" transform="translate(164.674548, 300.293578)">
                        <path d="M8.16209576,15.0475954 C4.43917447,15.0475954 1.41111125,12.018891 1.41111125,8.29256381 C1.41111125,4.5688543 4.43917447,1.54014998 8.16209576,1.54014998 C11.8876342,1.54014998 14.9183146,4.5688543 14.9183146,8.29256381 C14.9183146,12.018891 11.8876342,15.0475954 8.16209576,15.0475954" id="Fill-45" fill="#FFFFFE"></path>
                        <path d="M8.16209576,0.201054302 C3.70113313,0.201054302 0.073738476,3.83183468 0.073738476,8.29243293 C0.073738476,12.75434 3.70113313,16.3851204 8.16209576,16.3851204 C12.6230584,16.3851204 16.2517616,12.75434 16.2517616,8.29243293 C16.2517616,3.83183468 12.6230584,0.201054302 8.16209576,0.201054302 M8.16209576,2.87767502 C11.1535186,2.87767502 13.5809418,5.30299443 13.5809418,8.29243293 C13.5809418,11.2831803 11.1535186,13.7084997 8.16209576,13.7084997 C5.17329006,13.7084997 2.74586686,11.2831803 2.74586686,8.29243293 C2.74586686,5.30299443 5.17329006,2.87767502 8.16209576,2.87767502" id="Fill-46" fill="#EA0130"></path>
                    </g>
                    <g id="Group-21" transform="translate(90.885953, 374.917431)">
                        <path d="M8.16209576,15.0475954 C4.43917447,15.0475954 1.41111125,12.018891 1.41111125,8.29256381 C1.41111125,4.5688543 4.43917447,1.54014998 8.16209576,1.54014998 C11.8876342,1.54014998 14.9183146,4.5688543 14.9183146,8.29256381 C14.9183146,12.018891 11.8876342,15.0475954 8.16209576,15.0475954" id="Fill-45" fill="#FFFFFE"></path>
                        <path d="M8.16209576,0.201054302 C3.70113313,0.201054302 0.073738476,3.83183468 0.073738476,8.29243293 C0.073738476,12.75434 3.70113313,16.3851204 8.16209576,16.3851204 C12.6230584,16.3851204 16.2517616,12.75434 16.2517616,8.29243293 C16.2517616,3.83183468 12.6230584,0.201054302 8.16209576,0.201054302 M8.16209576,2.87767502 C11.1535186,2.87767502 13.5809418,5.30299443 13.5809418,8.29243293 C13.5809418,11.2831803 11.1535186,13.7084997 8.16209576,13.7084997 C5.17329006,13.7084997 2.74586686,11.2831803 2.74586686,8.29243293 C2.74586686,5.30299443 5.17329006,2.87767502 8.16209576,2.87767502" id="Fill-46" fill="#EA0130"></path>
                    </g>
                    <g id="Group-26" transform="translate(355.541284, 48.100917) rotate(-90.000000) translate(-355.541284, -48.100917) translate(346.992606, 39.559633)">
                        <path d="M8.83879071,15.2158934 C5.11325226,15.2132756 2.08649762,12.1858802 2.08388046,8.45955294 C2.08780621,4.73715229 5.11325226,1.71106569 8.83486496,1.7071391 C12.5656377,1.70452138 15.5976267,4.73846115 15.593701,8.45955294 C15.5923924,12.1845713 12.5630206,15.2132756 8.83879071,15.2158934" id="Fill-75" fill="#FFFFFE"></path>
                        <path d="M12.671633,4.62943303 C14.7836875,6.74193466 14.7836875,10.1737682 12.6637815,12.2888875 C10.5556528,14.402698 7.12062001,14.4013892 5.01118271,12.2915053 L3.11897035,14.1841182 C6.27527479,17.3371644 11.4049238,17.3384732 14.5559939,14.1815005 C17.7136069,11.0284544 17.7162241,5.89248388 14.5573025,2.7381289 L12.671633,4.62943303 Z" id="Fill-76" fill="#EA0130"></path>
                        <path d="M14.5571716,2.73839067 C11.4087187,-0.417273167 6.27252676,-0.419890889 3.1175309,2.73577295 C-0.0335392042,5.89274566 -0.037464956,11.0247896 3.11883949,14.18438 L5.01105185,12.291767 C2.89245447,10.1727211 2.90030597,6.74874074 5.01105185,4.6296948 C7.12179773,2.51326658 10.555522,2.51457545 12.6715022,4.6296948 L14.5571716,2.73839067 Z" id="Fill-77" fill="#529C00"></path>
                    </g>
                    <g id="Group-26" transform="translate(414.385953, 44.055046)">
                        <path d="M8.83879071,15.2158934 C5.11325226,15.2132756 2.08649762,12.1858802 2.08388046,8.45955294 C2.08780621,4.73715229 5.11325226,1.71106569 8.83486496,1.7071391 C12.5656377,1.70452138 15.5976267,4.73846115 15.593701,8.45955294 C15.5923924,12.1845713 12.5630206,15.2132756 8.83879071,15.2158934" id="Fill-75" fill="#FFFFFE"></path>
                        <path d="M12.671633,4.62943303 C14.7836875,6.74193466 14.7836875,10.1737682 12.6637815,12.2888875 C10.5556528,14.402698 7.12062001,14.4013892 5.01118271,12.2915053 L3.11897035,14.1841182 C6.27527479,17.3371644 11.4049238,17.3384732 14.5559939,14.1815005 C17.7136069,11.0284544 17.7162241,5.89248388 14.5573025,2.7381289 L12.671633,4.62943303 Z" id="Fill-76" fill="#EA0130"></path>
                        <path d="M14.5571716,2.73839067 C11.4087187,-0.417273167 6.27252676,-0.419890889 3.1175309,2.73577295 C-0.0335392042,5.89274566 -0.037464956,11.0247896 3.11883949,14.18438 L5.01105185,12.291767 C2.89245447,10.1727211 2.90030597,6.74874074 5.01105185,4.6296948 C7.12179773,2.51326658 10.555522,2.51457545 12.6715022,4.6296948 L14.5571716,2.73839067 Z" id="Fill-77" fill="#529C00"></path>
                    </g>
                    <g id="Group-26" transform="translate(306.402643, 151.944954)">
                        <path d="M8.83879071,15.2158934 C5.11325226,15.2132756 2.08649762,12.1858802 2.08388046,8.45955294 C2.08780621,4.73715229 5.11325226,1.71106569 8.83486496,1.7071391 C12.5656377,1.70452138 15.5976267,4.73846115 15.593701,8.45955294 C15.5923924,12.1845713 12.5630206,15.2132756 8.83879071,15.2158934" id="Fill-75" fill="#FFFFFE"></path>
                        <path d="M12.671633,4.62943303 C14.7836875,6.74193466 14.7836875,10.1737682 12.6637815,12.2888875 C10.5556528,14.402698 7.12062001,14.4013892 5.01118271,12.2915053 L3.11897035,14.1841182 C6.27527479,17.3371644 11.4049238,17.3384732 14.5559939,14.1815005 C17.7136069,11.0284544 17.7162241,5.89248388 14.5573025,2.7381289 L12.671633,4.62943303 Z" id="Fill-76" fill="#EA0130"></path>
                        <path d="M14.5571716,2.73839067 C11.4087187,-0.417273167 6.27252676,-0.419890889 3.1175309,2.73577295 C-0.0335392042,5.89274566 -0.037464956,11.0247896 3.11883949,14.18438 L5.01105185,12.291767 C2.89245447,10.1727211 2.90030597,6.74874074 5.01105185,4.6296948 C7.12179773,2.51326658 10.555522,2.51457545 12.6715022,4.6296948 L14.5571716,2.73839067 Z" id="Fill-77" fill="#529C00"></path>
                    </g>
                    <g id="Group-26" transform="translate(235.763561, 222.972477)">
                        <path d="M8.83879071,15.2158934 C5.11325226,15.2132756 2.08649762,12.1858802 2.08388046,8.45955294 C2.08780621,4.73715229 5.11325226,1.71106569 8.83486496,1.7071391 C12.5656377,1.70452138 15.5976267,4.73846115 15.593701,8.45955294 C15.5923924,12.1845713 12.5630206,15.2132756 8.83879071,15.2158934" id="Fill-75" fill="#FFFFFE"></path>
                        <path d="M12.671633,4.62943303 C14.7836875,6.74193466 14.7836875,10.1737682 12.6637815,12.2888875 C10.5556528,14.402698 7.12062001,14.4013892 5.01118271,12.2915053 L3.11897035,14.1841182 C6.27527479,17.3371644 11.4049238,17.3384732 14.5559939,14.1815005 C17.7136069,11.0284544 17.7162241,5.89248388 14.5573025,2.7381289 L12.671633,4.62943303 Z" id="Fill-76" fill="#EA0130"></path>
                        <path d="M14.5571716,2.73839067 C11.4087187,-0.417273167 6.27252676,-0.419890889 3.1175309,2.73577295 C-0.0335392042,5.89274566 -0.037464956,11.0247896 3.11883949,14.18438 L5.01105185,12.291767 C2.89245447,10.1727211 2.90030597,6.74874074 5.01105185,4.6296948 C7.12179773,2.51326658 10.555522,2.51457545 12.6715022,4.6296948 L14.5571716,2.73839067 Z" id="Fill-77" fill="#529C00"></path>
                    </g>
                    <g id="Group-26" transform="translate(468.377608, 19.330275) rotate(-315.000000) translate(-468.377608, -19.330275) translate(459.828929, 10.788991)">
                        <path d="M8.83879071,15.2158934 C5.11325226,15.2132756 2.08649762,12.1858802 2.08388046,8.45955294 C2.08780621,4.73715229 5.11325226,1.71106569 8.83486496,1.7071391 C12.5656377,1.70452138 15.5976267,4.73846115 15.593701,8.45955294 C15.5923924,12.1845713 12.5630206,15.2132756 8.83879071,15.2158934" id="Fill-75" fill="#FFFFFE"></path>
                        <path d="M12.671633,4.62943303 C14.7836875,6.74193466 14.7836875,10.1737682 12.6637815,12.2888875 C10.5556528,14.402698 7.12062001,14.4013892 5.01118271,12.2915053 L3.11897035,14.1841182 C6.27527479,17.3371644 11.4049238,17.3384732 14.5559939,14.1815005 C17.7136069,11.0284544 17.7162241,5.89248388 14.5573025,2.7381289 L12.671633,4.62943303 Z" id="Fill-76" fill="#EA0130"></path>
                        <path d="M14.5571716,2.73839067 C11.4087187,-0.417273167 6.27252676,-0.419890889 3.1175309,2.73577295 C-0.0335392042,5.89274566 -0.037464956,11.0247896 3.11883949,14.18438 L5.01105185,12.291767 C2.89245447,10.1727211 2.90030597,6.74874074 5.01105185,4.6296948 C7.12179773,2.51326658 10.555522,2.51457545 12.6715022,4.6296948 L14.5571716,2.73839067 Z" id="Fill-77" fill="#529C00"></path>
                    </g>
                    <g id="Group-26" transform="translate(638.001391, 174.871560) rotate(-270.000000) translate(-638.001391, -174.871560) translate(629.452712, 166.330275)">
                        <path d="M8.83879071,15.2158934 C5.11325226,15.2132756 2.08649762,12.1858802 2.08388046,8.45955294 C2.08780621,4.73715229 5.11325226,1.71106569 8.83486496,1.7071391 C12.5656377,1.70452138 15.5976267,4.73846115 15.593701,8.45955294 C15.5923924,12.1845713 12.5630206,15.2132756 8.83879071,15.2158934" id="Fill-75" fill="#FFFFFE"></path>
                        <path d="M12.671633,4.62943303 C14.7836875,6.74193466 14.7836875,10.1737682 12.6637815,12.2888875 C10.5556528,14.402698 7.12062001,14.4013892 5.01118271,12.2915053 L3.11897035,14.1841182 C6.27527479,17.3371644 11.4049238,17.3384732 14.5559939,14.1815005 C17.7136069,11.0284544 17.7162241,5.89248388 14.5573025,2.7381289 L12.671633,4.62943303 Z" id="Fill-76" fill="#EA0130"></path>
                        <path d="M14.5571716,2.73839067 C11.4087187,-0.417273167 6.27252676,-0.419890889 3.1175309,2.73577295 C-0.0335392042,5.89274566 -0.037464956,11.0247896 3.11883949,14.18438 L5.01105185,12.291767 C2.89245447,10.1727211 2.90030597,6.74874074 5.01105185,4.6296948 C7.12179773,2.51326658 10.555522,2.51457545 12.6715022,4.6296948 L14.5571716,2.73839067 Z" id="Fill-77" fill="#529C00"></path>
                    </g>
                    <g id="Group-26" transform="translate(605.606398, 142.504587) rotate(-270.000000) translate(-605.606398, -142.504587) translate(597.057719, 133.963303)">
                        <path d="M8.83879071,15.2158934 C5.11325226,15.2132756 2.08649762,12.1858802 2.08388046,8.45955294 C2.08780621,4.73715229 5.11325226,1.71106569 8.83486496,1.7071391 C12.5656377,1.70452138 15.5976267,4.73846115 15.593701,8.45955294 C15.5923924,12.1845713 12.5630206,15.2132756 8.83879071,15.2158934" id="Fill-75" fill="#FFFFFE"></path>
                        <path d="M12.671633,4.62943303 C14.7836875,6.74193466 14.7836875,10.1737682 12.6637815,12.2888875 C10.5556528,14.402698 7.12062001,14.4013892 5.01118271,12.2915053 L3.11897035,14.1841182 C6.27527479,17.3371644 11.4049238,17.3384732 14.5559939,14.1815005 C17.7136069,11.0284544 17.7162241,5.89248388 14.5573025,2.7381289 L12.671633,4.62943303 Z" id="Fill-76" fill="#EA0130"></path>
                        <path d="M14.5571716,2.99134713 C11.4087187,-0.0945765126 6.27252676,-0.0971363829 3.1175309,2.98878726 C-0.0335392042,6.07599084 -0.037464956,11.0946166 3.11883949,14.18438 L5.01105185,12.3335938 C2.89245447,10.2613788 2.90030597,6.91306843 5.01105185,4.84085342 C7.12179773,2.77119829 10.555522,2.77247822 12.6715022,4.84085342 L14.5571716,2.99134713 Z" id="Fill-77" fill="#529C00"></path>
                    </g>
                    <g id="Group-26" transform="translate(574.111266, 111.036697) rotate(-270.000000) translate(-574.111266, -111.036697) translate(565.562587, 102.495413)">
                        <path d="M8.83879071,15.2158934 C5.11325226,15.2132756 2.08649762,12.1858802 2.08388046,8.45955294 C2.08780621,4.73715229 5.11325226,1.71106569 8.83486496,1.7071391 C12.5656377,1.70452138 15.5976267,4.73846115 15.593701,8.45955294 C15.5923924,12.1845713 12.5630206,15.2132756 8.83879071,15.2158934" id="Fill-75" fill="#FFFFFE"></path>
                        <path d="M12.671633,4.62943303 C14.7836875,6.74193466 14.7836875,10.1737682 12.6637815,12.2888875 C10.5556528,14.402698 7.12062001,14.4013892 5.01118271,12.2915053 L3.11897035,14.1841182 C6.27527479,17.3371644 11.4049238,17.3384732 14.5559939,14.1815005 C17.7136069,11.0284544 17.7162241,5.89248388 14.5573025,2.7381289 L12.671633,4.62943303 Z" id="Fill-76" fill="#EA0130"></path>
                        <path d="M14.5571716,2.73839067 C11.4087187,-0.417273167 6.27252676,-0.419890889 3.1175309,2.73577295 C-0.0335392042,5.89274566 -0.037464956,11.0247896 3.11883949,14.18438 L5.01105185,12.291767 C2.89245447,10.1727211 2.90030597,6.74874074 5.01105185,4.6296948 C7.12179773,2.51326658 10.555522,2.51457545 12.6715022,4.6296948 L14.5571716,2.73839067 Z" id="Fill-77" fill="#529C00"></path>
                    </g>
                    <g id="Group-26" transform="translate(541.716273, 78.669725) rotate(-270.000000) translate(-541.716273, -78.669725) translate(533.167594, 70.128440)">
                        <path d="M8.83879071,15.2158934 C5.11325226,15.2132756 2.08649762,12.1858802 2.08388046,8.45955294 C2.08780621,4.73715229 5.11325226,1.71106569 8.83486496,1.7071391 C12.5656377,1.70452138 15.5976267,4.73846115 15.593701,8.45955294 C15.5923924,12.1845713 12.5630206,15.2132756 8.83879071,15.2158934" id="Fill-75" fill="#FFFFFE"></path>
                        <path d="M12.671633,4.62943303 C14.7836875,6.74193466 14.7836875,10.1737682 12.6637815,12.2888875 C10.5556528,14.402698 7.12062001,14.4013892 5.01118271,12.2915053 L3.11897035,14.1841182 C6.27527479,17.3371644 11.4049238,17.3384732 14.5559939,14.1815005 C17.7136069,11.0284544 17.7162241,5.89248388 14.5573025,2.7381289 L12.671633,4.62943303 Z" id="Fill-76" fill="#EA0130"></path>
                        <path d="M14.5571716,2.73839067 C11.4087187,-0.417273167 6.27252676,-0.419890889 3.1175309,2.73577295 C-0.0335392042,5.89274566 -0.037464956,11.0247896 3.11883949,14.18438 L5.01105185,12.291767 C2.89245447,10.1727211 2.90030597,6.74874074 5.01105185,4.6296948 C7.12179773,2.51326658 10.555522,2.51457545 12.6715022,4.6296948 L14.5571716,2.73839067 Z" id="Fill-77" fill="#529C00"></path>
                    </g>
                    <g id="Group-26" transform="translate(510.221140, 47.201835) rotate(-270.000000) translate(-510.221140, -47.201835) translate(501.672462, 38.660550)">
                        <path d="M8.83879071,15.2158934 C5.11325226,15.2132756 2.08649762,12.1858802 2.08388046,8.45955294 C2.08780621,4.73715229 5.11325226,1.71106569 8.83486496,1.7071391 C12.5656377,1.70452138 15.5976267,4.73846115 15.593701,8.45955294 C15.5923924,12.1845713 12.5630206,15.2132756 8.83879071,15.2158934" id="Fill-75" fill="#FFFFFE"></path>
                        <path d="M12.671633,4.62943303 C14.7836875,6.74193466 14.7836875,10.1737682 12.6637815,12.2888875 C10.5556528,14.402698 7.12062001,14.4013892 5.01118271,12.2915053 L3.11897035,14.1841182 C6.27527479,17.3371644 11.4049238,17.3384732 14.5559939,14.1815005 C17.7136069,11.0284544 17.7162241,5.89248388 14.5573025,2.7381289 L12.671633,4.62943303 Z" id="Fill-76" fill="#EA0130"></path>
                        <path d="M14.5571716,2.73839067 C11.4087187,-0.417273167 6.27252676,-0.419890889 3.1175309,2.73577295 C-0.0335392042,5.89274566 -0.037464956,11.0247896 3.11883949,14.18438 L5.01105185,12.291767 C2.89245447,10.1727211 2.90030597,6.74874074 5.01105185,4.6296948 C7.12179773,2.51326658 10.555522,2.51457545 12.6715022,4.6296948 L14.5571716,2.73839067 Z" id="Fill-77" fill="#529C00"></path>
                    </g>
                    <g id="Group-21" transform="translate(41.393602, 83.614679)">
                        <path d="M8.16209576,15.0475954 C4.43917447,15.0475954 1.41111125,12.018891 1.41111125,8.29256381 C1.41111125,4.5688543 4.43917447,1.54014998 8.16209576,1.54014998 C11.8876342,1.54014998 14.9183146,4.5688543 14.9183146,8.29256381 C14.9183146,12.018891 11.8876342,15.0475954 8.16209576,15.0475954" id="Fill-45" fill="#FFFFFE"></path>
                        <path d="M8.16209576,0.201054302 C3.70113313,0.201054302 0.073738476,3.83183468 0.073738476,8.29243293 C0.073738476,12.75434 3.70113313,16.3851204 8.16209576,16.3851204 C12.6230584,16.3851204 16.2517616,12.75434 16.2517616,8.29243293 C16.2517616,3.83183468 12.6230584,0.201054302 8.16209576,0.201054302 M8.16209576,2.87767502 C11.1535186,2.87767502 13.5809418,5.30299443 13.5809418,8.29243293 C13.5809418,11.2831803 11.1535186,13.7084997 8.16209576,13.7084997 C5.17329006,13.7084997 2.74586686,11.2831803 2.74586686,8.29243293 C2.74586686,5.30299443 5.17329006,2.87767502 8.16209576,2.87767502" id="Fill-46" fill="#529C00"></path>
                    </g>
                    <g id="Group-21" transform="translate(28.795549, 71.926606)">
                        <path d="M8.16209576,15.0475954 C4.43917447,15.0475954 1.41111125,12.018891 1.41111125,8.29256381 C1.41111125,4.5688543 4.43917447,1.54014998 8.16209576,1.54014998 C11.8876342,1.54014998 14.9183146,4.5688543 14.9183146,8.29256381 C14.9183146,12.018891 11.8876342,15.0475954 8.16209576,15.0475954" id="Fill-45" fill="#FFFFFE"></path>
                        <path d="M8.16209576,0.201054302 C3.70113313,0.201054302 0.073738476,3.83183468 0.073738476,8.29243293 C0.073738476,12.75434 3.70113313,16.3851204 8.16209576,16.3851204 C12.6230584,16.3851204 16.2517616,12.75434 16.2517616,8.29243293 C16.2517616,3.83183468 12.6230584,0.201054302 8.16209576,0.201054302 M8.16209576,2.87767502 C11.1535186,2.87767502 13.5809418,5.30299443 13.5809418,8.29243293 C13.5809418,11.2831803 11.1535186,13.7084997 8.16209576,13.7084997 C5.17329006,13.7084997 2.74586686,11.2831803 2.74586686,8.29243293 C2.74586686,5.30299443 5.17329006,2.87767502 8.16209576,2.87767502" id="Fill-46" fill="#7F1F6B"></path>
                    </g>
                    <g id="Group-21" transform="translate(0.000000, 42.256881)">
                        <path d="M8.16209576,15.0475954 C4.43917447,15.0475954 1.41111125,12.018891 1.41111125,8.29256381 C1.41111125,4.5688543 4.43917447,1.54014998 8.16209576,1.54014998 C11.8876342,1.54014998 14.9183146,4.5688543 14.9183146,8.29256381 C14.9183146,12.018891 11.8876342,15.0475954 8.16209576,15.0475954" id="Fill-45" fill="#FFFFFE"></path>
                        <path d="M8.16209576,0.201054302 C3.70113313,0.201054302 0.073738476,3.83183468 0.073738476,8.29243293 C0.073738476,12.75434 3.70113313,16.3851204 8.16209576,16.3851204 C12.6230584,16.3851204 16.2517616,12.75434 16.2517616,8.29243293 C16.2517616,3.83183468 12.6230584,0.201054302 8.16209576,0.201054302 M8.16209576,2.87767502 C11.1535186,2.87767502 13.5809418,5.30299443 13.5809418,8.29243293 C13.5809418,11.2831803 11.1535186,13.7084997 8.16209576,13.7084997 C5.17329006,13.7084997 2.74586686,11.2831803 2.74586686,8.29243293 C2.74586686,5.30299443 5.17329006,2.87767502 8.16209576,2.87767502" id="Fill-46" fill="#7F1F6B"></path>
                    </g>
                    <path d="M252.561452,240.100306 C252.140415,242.447813 251.502022,244.748529 250.696654,246.995254 L322.684577,246.995254 C322.150209,242.752294 322.150209,242.752294 323.206466,240.100306 L252.561452,240.100306 Z" id="Fill-33" fill="#93C43F"></path>
                    <path d="M256.523709,250.607228 C252.800788,250.607228 249.772725,247.578524 249.772725,243.852197 C249.772725,240.128487 252.800788,237.099783 256.523709,237.099783 C260.249248,237.099783 263.279928,240.128487 263.279928,243.852197 C263.279928,247.578524 260.249248,250.607228 256.523709,250.607228" id="Fill-45" fill="#FFFFFE"></path>
                    <path d="M256.523709,235.760687 C252.062746,235.760687 248.435352,239.391468 248.435352,243.852066 C248.435352,248.313973 252.062746,251.944753 256.523709,251.944753 C260.984672,251.944753 264.613375,248.313973 264.613375,243.852066 C264.613375,239.391468 260.984672,235.760687 256.523709,235.760687 M256.523709,238.437308 C259.515132,238.437308 261.942555,240.862627 261.942555,243.852066 C261.942555,246.842813 259.515132,249.268133 256.523709,249.268133 C253.534903,249.268133 251.10748,246.842813 251.10748,243.852066 C251.10748,240.862627 253.534903,238.437308 256.523709,238.437308" id="Fill-46" fill="#93C43F"></path>
                    <polygon id="Fill-96" fill="#FFFFFE" points="253.135783 243.059824 241.587137 231.508013 244.049303 229.049645 255.590751 240.600736"></polygon>
                    <path d="M329.412443,235.760687 C324.951481,235.760687 321.324086,239.391468 321.324086,243.852066 C321.324086,248.313973 324.951481,251.944753 329.412443,251.944753 C333.873406,251.944753 337.502109,248.313973 337.502109,243.852066 C337.502109,239.391468 333.873406,235.760687 329.412443,235.760687 M329.412443,238.437308 C332.403866,238.437308 334.83129,240.862627 334.83129,243.852066 C334.83129,246.842813 332.403866,249.268133 329.412443,249.268133 C326.423638,249.268133 323.996215,246.842813 323.996215,243.852066 C323.996215,240.862627 326.423638,238.437308 329.412443,238.437308" id="Fill-46" fill="#93C43F"></path>
                    <path d="M373.965792,101.73035 C376.077846,103.842852 376.077846,107.274686 373.95794,109.389805 C371.849811,111.503615 368.414779,111.502307 366.305341,109.392423 L364.413129,111.285036 C367.569433,114.438082 372.699082,114.439391 375.850152,111.282418 C379.007765,108.129372 379.010383,102.993401 375.851461,99.8390463 L373.965792,101.73035 Z" id="Fill-76" fill="#EA0130"></path>
                    <path d="M375.85133,99.8393081 C372.702877,96.6836443 367.566685,96.6810265 364.411689,99.8366904 C361.260619,102.993663 361.256694,108.125707 364.412998,111.285297 L366.30521,109.392684 C364.186613,107.273639 364.194465,103.849658 366.30521,101.730612 C368.415956,99.614184 371.849681,99.6154929 373.965661,101.730612 L375.85133,99.8393081 Z" id="Fill-77" fill="#006F19"></path>
                    <polygon id="Fill-2413" fill="#FFFFFE" transform="translate(43.153440, 86.343852) rotate(-2.000000) translate(-43.153440, -86.343852) " points="39.1985179 80.0501479 49.4435512 90.298091 47.103888 92.6375556 36.8633283 82.3873749"></polygon>
                </g>
            </g>
        </g>
    </g>
</svg>
