<svg xmlns="http://www.w3.org/2000/svg" xmlns:xlink="http://www.w3.org/1999/xlink" width="18" height="18" viewBox="0 0 18 18">
    <defs>
        <clipPath id="clip-path">
            <rect id="Rectangle_56" data-name="Rectangle 56" width="18" height="18" fill="#fff" stroke="#707070" stroke-width="1"/>
        </clipPath>
    </defs>
    <g id="Mask_Group_9" data-name="Mask Group 9" clip-path="url(#clip-path)">
        <g id="bed_3_" data-name="bed (3)" transform="translate(0 2.625)">
            <g id="Group_380" data-name="Group 380">
                <g id="Group_379" data-name="Group 379">
                    <path id="Path_879" data-name="Path 879" d="M1.875,7.125H3.75a.375.375,0,0,1-.364-.466l.233-.932a1.123,1.123,0,0,1,1.091-.852H7.125A1.126,1.126,0,0,1,8.25,6v.75a.375.375,0,0,1-.375.375h2.25A.375.375,0,0,1,9.75,6.75V6a1.126,1.126,0,0,1,1.125-1.125h2.414a1.123,1.123,0,0,1,1.091.852l.233.932a.375.375,0,0,1-.364.466h1.875A.375.375,0,0,0,16.5,6.75V4.5a1.878,1.878,0,0,0-1.875-1.875H3.375A1.878,1.878,0,0,0,1.5,4.5V6.75A.375.375,0,0,0,1.875,7.125Z" transform="translate(0 -2.625)" fill="#7967ad"/>
                    <path id="Path_880" data-name="Path 880" d="M16.125,7.875H1.875A1.878,1.878,0,0,0,0,9.75V15a.375.375,0,0,0,.75,0V13.875h16.5V15A.375.375,0,1,0,18,15V9.75A1.878,1.878,0,0,0,16.125,7.875Zm1.125,5.25H.75v-.75h16.5v.75Z" transform="translate(0 -2.625)" fill="#7967ad"/>
                </g>
            </g>
        </g>
    </g>
</svg>
