<?xml version="1.0" encoding="iso-8859-1"?>
<!-- Generator: Adobe Illustrator 19.0.0, SVG Export Plug-In . SVG Version: 6.00 Build 0)  -->
<svg version="1.1" id="Layer_1" xmlns="http://www.w3.org/2000/svg" xmlns:xlink="http://www.w3.org/1999/xlink" x="0px" y="0px"
     viewBox="0 0 512 512" style="enable-background:new 0 0 512 512;" xml:space="preserve">
<path style="fill:#CFCDCF;" d="M76.321,264.537H16.173C7.241,264.537,0,257.295,0,248.364s7.241-16.173,16.173-16.173h60.148
	c8.932,0,16.173,7.241,16.173,16.173S85.252,264.537,76.321,264.537z"/>
    <path style="fill:#FF9900;" d="M455.517,94.083H126.866c-31.145,0-56.483,25.338-56.483,56.483v210.868
	c0,31.145,25.338,56.483,56.483,56.483h328.652c31.145,0,56.483-25.338,56.483-56.483V150.567
	C512,119.422,486.662,94.083,455.517,94.083z"/>
    <path style="fill:#FAD52A;" d="M291.191,94.083H126.866c-31.145,0-56.483,25.338-56.483,56.483v210.868
	c0,31.145,25.338,56.483,56.483,56.483h164.326L291.191,94.083L291.191,94.083z"/>
    <path style="fill:#B1B0BC;" d="M163.631,340.307H43.336c-8.932,0-16.173-7.241-16.173-16.173s7.241-16.173,16.173-16.173h120.295
	c8.932,0,16.173,7.241,16.173,16.173S172.563,340.307,163.631,340.307z"/>
    <path style="fill:#CFCDCF;" d="M103.484,340.307H43.336c-8.932,0-16.173-7.241-16.173-16.173s7.241-16.173,16.173-16.173h60.148
	V340.307z"/>
    <path style="fill:#FAD52A;" d="M329.23,270.288l181.189-132.955c-5.974-24.778-28.315-43.249-54.902-43.249H126.866
	c-26.586,0-48.928,18.47-54.901,43.249l181.189,132.955C275.621,286.775,306.762,286.775,329.23,270.288z"/>
    <path style="fill:#FFEA5E;" d="M291.191,94.083H126.866c-26.586,0-48.928,18.47-54.901,43.249l181.189,132.955
	c11.234,8.244,24.636,12.366,38.039,12.366L291.191,94.083z"/>
    <g>
</g>
    <g>
</g>
    <g>
</g>
    <g>
</g>
    <g>
</g>
    <g>
</g>
    <g>
</g>
    <g>
</g>
    <g>
</g>
    <g>
</g>
    <g>
</g>
    <g>
</g>
    <g>
</g>
    <g>
</g>
    <g>
</g>
</svg>
