<svg xmlns="http://www.w3.org/2000/svg" width="13" height="14.529" viewBox="0 0 13 14.529">
    <g id="up-arrow_2_" data-name="up-arrow (2)" transform="translate(-32.307)">
        <g id="Group_595" data-name="Group 595" transform="translate(32.307)">
            <path id="Path_929" data-name="Path 929" d="M45.216,6.146,39.017.088a.316.316,0,0,0-.439,0L32.4,6.146a.3.3,0,0,0-.067.33.31.31,0,0,0,.286.186h3.408v7.565a.306.306,0,0,0,.31.3h4.957a.306.306,0,0,0,.31-.3V6.662H45a.311.311,0,0,0,.286-.187A.3.3,0,0,0,45.216,6.146Z" transform="translate(-32.307)" fill="#7967ad"/>
        </g>
    </g>
</svg>
