<svg xmlns="http://www.w3.org/2000/svg" width="13" height="15" viewBox="0 0 13 15">
    <g id="premium-badge" transform="translate(-26.93)">
        <g id="Layer_5_21_" transform="translate(26.93)">
            <g id="Group_599" data-name="Group 599" transform="translate(0)">
                <path id="Path_930" data-name="Path 930" d="M39.87,12.745,37.879,9.371c.345-.1.712-.2.864-.455.254-.433-.2-1.142-.079-1.606s.845-.89.845-1.376-.747-1.025-.87-1.5.332-1.174.076-1.606-1.1-.4-1.454-.728S36.9.923,36.469.694s-1.144.234-1.628.125S33.935,0,33.436,0,32.122.805,32,.834C31.512.945,30.8.482,30.368.713s-.431,1.065-.79,1.407-1.2.3-1.453.731.2,1.142.08,1.606-.867.937-.867,1.475c0,.485.724.9.848,1.374s-.331,1.174-.076,1.606a1.259,1.259,0,0,0,.768.425c.037.011.106.051.059.119L26.989,12.77c-.138.234-.026.435.249.447l1.344.055a1.073,1.073,0,0,1,.765.437l.717,1.122a.279.279,0,0,0,.517-.01l2.007-3.416c.04-.046.081-.037.1-.021a1.4,1.4,0,0,0,.781.368,1.208,1.208,0,0,0,.712-.366c.019-.016.064-.048.1.019l2,3.4a.279.279,0,0,0,.517.009l.715-1.123a1.073,1.073,0,0,1,.765-.439l1.344-.058C39.9,13.18,40.008,12.979,39.87,12.745ZM35.656,9.673a4.522,4.522,0,0,1-4.631-.086,4.369,4.369,0,0,1-1.453-5.91,4.5,4.5,0,0,1,5.995-1.659l.033.018.047.026a4.372,4.372,0,0,1,.009,7.611Z" transform="translate(-26.93)" fill="#7967ad"/>
                <path id="Path_931" data-name="Path 931" d="M98.958,54.006,98.939,54a3.8,3.8,0,0,0-3.789,0,3.717,3.717,0,0,0-.1,6.394c.043.027.086.053.131.079a3.794,3.794,0,0,0,5.152-1.359A3.719,3.719,0,0,0,98.958,54.006Zm.45,2.913-.63.608a1.042,1.042,0,0,0-.271.826l.149.859c.046.266-.114.381-.355.255l-.779-.405a1.068,1.068,0,0,0-.877,0l-.779.405c-.241.126-.4.011-.355-.255l.149-.859a1.042,1.042,0,0,0-.271-.826l-.63-.608c-.2-.188-.134-.374.135-.413l.87-.125a1.058,1.058,0,0,0,.709-.511l.389-.781c.121-.242.318-.242.438,0l.389.781a1.058,1.058,0,0,0,.709.511l.87.125C99.542,56.545,99.6,56.731,99.408,56.919Z" transform="translate(-90.563 -51.303)" fill="#7967ad"/>
            </g>
        </g>
    </g>
</svg>
