<svg xmlns="http://www.w3.org/2000/svg" xmlns:xlink="http://www.w3.org/1999/xlink" width="25" height="25" viewBox="0 0 25 25">
  <defs>
    <clipPath id="clip-path">
      <rect id="Rectangle_81" data-name="Rectangle 81" width="25" height="25" transform="translate(1878 339)" fill="#fff" stroke="#707070" stroke-width="1"/>
    </clipPath>
  </defs>
  <g id="Mask_Group_15" data-name="Mask Group 15" transform="translate(-1878 -339)" clip-path="url(#clip-path)">
    <path id="plan" d="M3.232,18.943a.928.928,0,0,1,0,1.312l-.815.815a.928.928,0,0,1-.656.272h-.01a.925.925,0,0,1-.727-.352l-.754-.754a.927.927,0,0,1,.552-1.577V2.792A.927.927,0,0,1,.272,1.214L1.086.4a.925.925,0,0,1,.66-.271h.005A.925.925,0,0,1,2.478.48l.754.754a.927.927,0,0,1-.553,1.577V18.678A.922.922,0,0,1,3.232,18.943ZM25,23.11a.928.928,0,0,0-.272-.656l-.815-.815a.927.927,0,0,0-1.577.553H6.469a.927.927,0,0,0-1.577-.553l-.754.754a.926.926,0,0,0-.352.726s0,0,0,0,0,0,0,0a.928.928,0,0,0,.272.656l.815.815a.927.927,0,0,0,1.577-.552H22.317a.927.927,0,0,0,1.577.552l.753-.753A.925.925,0,0,0,25,23.12s0,0,0,0S25,23.112,25,23.11ZM24.072,7.952H17.545v-6.9a.928.928,0,0,0-.928-.928H5.548a.928.928,0,0,0-.928.928V19.329a.928.928,0,0,0,.928.928H24.072A.928.928,0,0,0,25,19.329V8.879A.928.928,0,0,0,24.072,7.952Z" transform="translate(1878 339)" fill="#7967ad"/>
  </g>
</svg>
