<svg xmlns="http://www.w3.org/2000/svg" xmlns:xlink="http://www.w3.org/1999/xlink" width="18" height="18" viewBox="0 0 18 18">
  <defs>
    <clipPath id="clip-path">
      <rect id="Rectangle_59" data-name="Rectangle 59" width="18" height="18" transform="translate(0.333)" fill="#fff" stroke="#707070" stroke-width="1"/>
    </clipPath>
  </defs>
  <g id="Mask_Group_10" data-name="Mask Group 10" transform="translate(-0.333)" clip-path="url(#clip-path)">
    <g id="Mask_Group_572" data-name="Mask Group 572">
      <g id="bath_1_" data-name="bath (1)">
        <g id="Group_510" data-name="Group 510">
          <g id="Group_509" data-name="Group 509">
            <path id="Path_901" data-name="Path 901" d="M16.875,8.967H1.125a1.125,1.125,0,1,0,0,2.25h15.75a1.125,1.125,0,0,0,0-2.25Z" fill="#7967ad"/>
          </g>
        </g>
        <g id="Group_512" data-name="Group 512">
          <g id="Group_511" data-name="Group 511">
            <path id="Path_902" data-name="Path 902" d="M16.979,10.481a.373.373,0,0,0-.464.258l-.029.1H1.515l-.03-.1a.375.375,0,1,0-.721.205L1.8,14.562a2.636,2.636,0,0,0,2.524,1.9h9.356a2.635,2.635,0,0,0,2.524-1.9l1.033-3.618A.374.374,0,0,0,16.979,10.481ZM4.322,14.967a1.129,1.129,0,0,1-1.082-.816l-.487-1.705a.375.375,0,1,1,.721-.205l.487,1.706a.378.378,0,0,0,.361.272.375.375,0,1,1,0,.749Z" fill="#7967ad"/>
          </g>
        </g>
        <g id="Group_514" data-name="Group 514">
          <g id="Group_513" data-name="Group 513">
            <path id="Path_903" data-name="Path 903" d="M5.042,15.756a.377.377,0,0,0-.5.168l-.75,1.5a.375.375,0,1,0,.671.335l.75-1.5A.376.376,0,0,0,5.042,15.756Z" fill="#7967ad"/>
          </g>
        </g>
        <g id="Group_516" data-name="Group 516">
          <g id="Group_515" data-name="Group 515">
            <path id="Path_904" data-name="Path 904" d="M14.211,17.424l-.75-1.5a.375.375,0,0,0-.671.335l.75,1.5a.375.375,0,0,0,.335.207.388.388,0,0,0,.168-.039A.376.376,0,0,0,14.211,17.424Z" fill="#7967ad"/>
          </g>
        </g>
        <g id="Group_518" data-name="Group 518">
          <g id="Group_517" data-name="Group 517">
            <path id="Path_905" data-name="Path 905" d="M15.064.033a1.424,1.424,0,0,0-1.013.42l-1.19,1.19a.375.375,0,0,0,.53.53l1.19-1.19a.685.685,0,0,1,1.169.482V9.342a.375.375,0,1,0,.751,0V1.466A1.435,1.435,0,0,0,15.064.033Z" fill="#7967ad"/>
          </g>
        </g>
        <g id="Group_520" data-name="Group 520">
          <g id="Group_519" data-name="Group 519">
            <path id="Path_906" data-name="Path 906" d="M13.766,2.019l-.75-.75a.371.371,0,0,0-.326-.105l-1.875.308a.375.375,0,0,0-.208.631l2.25,2.318a.375.375,0,0,0,.637-.187l.375-1.875A.375.375,0,0,0,13.766,2.019Z" fill="#7967ad"/>
          </g>
        </g>
        <g id="Group_522" data-name="Group 522">
          <g id="Group_521" data-name="Group 521">
            <path id="Path_907" data-name="Path 907" d="M8.89,4.577a.375.375,0,0,0-.53,0l-.75.75a.375.375,0,0,0,.53.53l.75-.75A.375.375,0,0,0,8.89,4.577Z" fill="#7967ad"/>
          </g>
        </g>
        <g id="Group_524" data-name="Group 524">
          <g id="Group_523" data-name="Group 523">
            <path id="Path_908" data-name="Path 908" d="M10.39,6.077a.375.375,0,0,0-.53,0l-.75.75a.375.375,0,0,0,.53.53l.75-.75A.375.375,0,0,0,10.39,6.077Z" fill="#7967ad"/>
          </g>
        </g>
        <g id="Group_526" data-name="Group 526">
          <g id="Group_525" data-name="Group 525">
            <path id="Path_909" data-name="Path 909" d="M11.14,3.827a.375.375,0,0,0-.53,0l-.75.75a.375.375,0,0,0,.53.53l.75-.75A.375.375,0,0,0,11.14,3.827Z" fill="#7967ad"/>
          </g>
        </g>
      </g>
    </g>
  </g>
</svg>
