<svg xmlns="http://www.w3.org/2000/svg" xmlns:xlink="http://www.w3.org/1999/xlink" width="46" height="46" viewBox="0 0 46 46">
  <defs>
    <clipPath id="clip-path">
      <rect id="Rectangle_203" data-name="Rectangle 203" width="46" height="46" transform="translate(424 632)" fill="#fff" stroke="#707070" stroke-width="1"/>
    </clipPath>
  </defs>
  <g id="Mask_Group_591" data-name="Mask Group 591" transform="translate(-424 -632)" clip-path="url(#clip-path)">
    <g id="online-advertising" transform="translate(424 631.955)">
      <path id="Path_1008" data-name="Path 1008" d="M.9,2.74V32.208A1.8,1.8,0,0,0,2.7,34H36.3a1.8,1.8,0,0,0,1.8-1.8V2.74a1.8,1.8,0,0,0-1.8-1.8H2.7A1.8,1.8,0,0,0,.9,2.74Zm0,0" fill="#fff"/>
      <path id="Path_1009" data-name="Path 1009" d="M2.7.943H36.3a1.8,1.8,0,0,1,1.8,1.8V8.849H.9V2.74A1.8,1.8,0,0,1,2.7.943Zm0,0" fill="#a0e557"/>
      <path id="Path_1010" data-name="Path 1010" d="M5.211,13.161H27.491V26.817H5.211Zm0,0" fill="#ff5d5d"/>
      <path id="Path_1011" data-name="Path 1011" d="M41.146,29.528,24.768,24.812l4.716,16.377L32.273,38.4l6.744,6.744L45.1,39.06l-6.744-6.744Zm0,0" fill="#72d8ff"/>
      <path id="Path_1012" data-name="Path 1012" d="M5.61,5.795h.008a.9.9,0,1,0-.008,0Zm0,0"/>
      <path id="Path_1013" data-name="Path 1013" d="M9.7,5.795h.008a.9.9,0,1,0-.008,0Zm0,0"/>
      <path id="Path_1014" data-name="Path 1014" d="M13.786,5.795h.008a.9.9,0,1,0-.008,0Zm0,0"/>
      <path id="Path_1015" data-name="Path 1015" d="M20.821,5.795h12.51a.9.9,0,1,0,0-1.8H20.821a.9.9,0,1,0,0,1.8Zm0,0"/>
      <path id="Path_1016" data-name="Path 1016" d="M38.092,24.122a.9.9,0,1,0,.635.263A.9.9,0,0,0,38.092,24.122Zm0,0"/>
      <path id="Path_1019" data-name="Path 1019" d="M45.737,38.425l-6.109-6.109,2.153-2.153a.9.9,0,0,0-.387-1.5l-13-3.745V13.161a.9.9,0,0,0-.9-.9H5.211a.9.9,0,0,0-.9.9V26.817a.9.9,0,0,0,.9.9H24.67l1.553,5.39H2.7a.9.9,0,0,1-.9-.9V9.748h35.4V21.427a.9.9,0,0,0,1.8,0V2.74a2.7,2.7,0,0,0-2.7-2.7H2.7A2.7,2.7,0,0,0,0,2.74V32.208a2.7,2.7,0,0,0,2.7,2.7H26.74l1.882,6.535a.9.9,0,0,0,1.5.387l2.153-2.153,6.109,6.109a.9.9,0,0,0,1.27,0L45.737,39.7a.9.9,0,0,0,0-1.27ZM2.7,1.842H36.3a.9.9,0,0,1,.9.9V7.951H1.8V2.74A.9.9,0,0,1,2.7,1.842ZM6.109,25.919V14.06H26.593V24.4l-1.575-.454a.9.9,0,0,0-1.112,1.112l.247.858ZM39.017,43.874l-6.108-6.109a.9.9,0,0,0-1.271,0l-1.711,1.711L26.081,26.125,39.433,29.97l-1.711,1.711a.9.9,0,0,0,0,1.27l6.109,6.108Zm0,0"/>
      <path id="Path_1020" data-name="Path 1020" d="M11.479,31.309a.9.9,0,1,0,0-1.8H5.339a.9.9,0,1,0,0,1.8Zm0,0"/>
      <path id="Path_1021" data-name="Path 1021" d="M15.663,31.046a.9.9,0,1,0-.635.263A.906.906,0,0,0,15.663,31.046Zm0,0"/>
    </g>
  </g>
</svg>
