<svg xmlns="http://www.w3.org/2000/svg" xmlns:xlink="http://www.w3.org/1999/xlink" width="24" height="24" viewBox="0 0 24 24">
  <defs>
    <clipPath id="clip-path">
      <rect id="Rectangle_97" data-name="Rectangle 97" width="24" height="24" transform="translate(1233 263)" fill="#fff" stroke="#707070" stroke-width="1"/>
    </clipPath>
  </defs>
  <g id="Mask_Group_574" data-name="Mask Group 574" transform="translate(-1233 -263)" clip-path="url(#clip-path)">
    <g id="flags" transform="translate(1235.072 265.762)">
      <g id="Group_580" data-name="Group 580" transform="translate(3)">
        <g id="Path_915" data-name="Path 915" transform="translate(-3)" fill="#fff">
          <path d="M 3.923713684082031 17.72606086730957 C 3.827873468399048 17.72606086730957 3.749903678894043 17.64809226989746 3.749903678894043 17.55226135253906 L 3.749903678894043 0.9238013625144958 C 3.749903678894043 0.8279713988304138 3.827873468399048 0.7500013709068298 3.923713684082031 0.7500013709068298 C 4.019543647766113 0.7500013709068298 4.097513675689697 0.8279713988304138 4.097513675689697 0.9238013625144958 L 4.097513675689697 1.182501435279846 L 4.097513675689697 2.624921321868896 L 5.278283596038818 1.796451330184937 C 5.967023372650146 1.313211441040039 6.775803565979004 1.057781338691711 7.617193698883057 1.057781338691711 L 7.652453422546387 1.057931423187256 L 7.663693428039551 1.058031439781189 L 7.674933433532715 1.057791352272034 C 7.702733516693115 1.057201385498047 7.730353355407715 1.056901335716248 7.758093357086182 1.056901335716248 C 8.782333374023438 1.056901335716248 9.749543190002441 1.451511383056641 10.48154354095459 2.168031454086304 C 11.37895393371582 3.041901350021362 12.56114387512207 3.522401332855225 13.81173324584961 3.522391319274902 C 13.84366512298584 3.522391319274902 13.87565517425537 3.522076606750488 13.90764999389648 3.521434545516968 L 13.92765331268311 3.521491289138794 C 14.68122577667236 3.52147364616394 15.42860317230225 3.35094952583313 16.10695266723633 3.026174068450928 L 16.10695266723633 9.720402717590332 C 15.46116352081299 10.12337684631348 14.71969413757324 10.3359317779541 13.95690536499023 10.3359317779541 C 13.9568567276001 10.3359317779541 13.95690155029297 10.3359317779541 13.95685386657715 10.3359317779541 C 13.94111347198486 10.3359317779541 13.92527389526367 10.33583164215088 13.90951347351074 10.33565139770508 L 13.89753341674805 10.33551120758057 L 13.88556385040283 10.3357515335083 C 13.85915374755859 10.33629131317139 13.83284378051758 10.33656120300293 13.80648326873779 10.33656120300293 C 12.78267383575439 10.33656120300293 11.81596374511719 9.942031860351562 11.08443355560303 9.225651741027832 C 10.18565368652344 8.351511001586914 9.002673149108887 7.871091365814209 7.75157356262207 7.871091365814209 C 7.719549655914307 7.871091365814209 7.687377452850342 7.871414184570312 7.655263423919678 7.87205982208252 C 7.638078212738037 7.871879577636719 7.620934963226318 7.871791362762451 7.603743553161621 7.871791362762451 C 6.560232162475586 7.871791362762451 5.563908100128174 8.194183349609375 4.719324588775635 8.80467700958252 L 4.097513675689697 8.862931251525879 L 4.097513675689697 9.545951843261719 L 4.097513675689697 17.55226135253906 C 4.097513675689697 17.64809226989746 4.019543647766113 17.72606086730957 3.923713684082031 17.72606086730957 Z" stroke="none"/>
          <path d="M 7.758123397827148 1.806901931762695 C 7.735754013061523 1.806901931762695 7.713473320007324 1.80714225769043 7.69106388092041 1.807621002197266 L 7.668513298034668 1.808101654052734 L 7.617193222045898 1.807781219482422 C 6.930773735046387 1.807781219482422 6.270943641662598 2.016170501708984 5.709043502807617 2.410411834716797 L 4.499903678894043 3.258774757385254 L 4.499903678894043 8.045440673828125 C 5.424173355102539 7.44019603729248 6.490704536437988 7.121800422668457 7.603743553161621 7.121791839599609 C 7.653108596801758 7.121790885925293 7.702433586120605 7.121091842651367 7.751513481140137 7.121091842651367 C 9.198993682861328 7.121031761169434 10.56769371032715 7.676871299743652 11.60549354553223 8.686191558837891 L 11.60919380187988 8.689811706542969 C 12.21489906311035 9.282981872558594 13.02139472961426 9.603067398071289 13.87030410766602 9.585911750793457 L 13.89438343048096 9.585421562194824 L 13.95684337615967 9.585931777954102 C 14.44394302368164 9.585931777954102 14.920334815979 9.479653358459473 15.35695362091064 9.275768280029297 L 15.35695362091064 4.091902732849121 C 14.89107799530029 4.210538864135742 14.41043090820312 4.271491050720215 13.92763328552246 4.271491050720215 L 13.91402244567871 4.271450996398926 C 12.42995071411133 4.298948287963867 11.02101898193359 3.740184783935547 9.956913948059082 2.703990936279297 C 9.365913391113281 2.125492095947266 8.585033416748047 1.806901931762695 7.758123397827148 1.806901931762695 M 3.923713684082031 1.9073486328125e-06 C 4.433933258056641 1.9073486328125e-06 4.847513198852539 0.4136219024658203 4.847513198852539 0.9238014221191406 L 4.847513198852539 1.182500839233398 C 5.670561790466309 0.6050224304199219 6.653501510620117 0.2993698120117188 7.658943176269531 0.3079605102539062 C 8.907374382019043 0.2813625335693359 10.11384391784668 0.7586002349853516 11.0061731338501 1.632061004638672 C 11.77914333343506 2.384742736816406 12.82210922241211 2.795292854309082 13.90074348449707 2.771410942077637 C 14.63846683502197 2.776116371154785 15.3649730682373 2.59044075012207 16.01008415222168 2.23253059387207 C 16.1766242980957 2.135641098022461 16.38238334655762 2.135641098022461 16.54896354675293 2.23253059387207 C 16.74122428894043 2.343530654907227 16.8589038848877 2.549411773681641 16.85695266723633 2.771410942077637 L 16.85695266723633 9.776871681213379 C 16.8628044128418 9.984901428222656 16.76316452026367 10.18182182312012 16.59211349487305 10.30037117004395 C 15.79281425476074 10.82340145111084 14.85593795776367 11.09674453735352 13.90078353881836 11.08560180664062 C 12.65445041656494 11.110915184021 11.45032405853271 10.63370132446289 10.55968379974365 9.761501312255859 C 9.78480339050293 9.007871627807617 8.739571571350098 8.597311973571777 7.658943176269531 8.622151374816895 C 6.749238967895508 8.610171318054199 5.860344886779785 8.895572662353516 5.127723693847656 9.435101509094238 C 5.046783447265625 9.497961044311523 4.949563980102539 9.536391258239746 4.847513198852539 9.545951843261719 L 4.847513198852539 17.55226135253906 C 4.847513198852539 18.06248092651367 4.433893203735352 18.47606086730957 3.923713684082031 18.47606086730957 C 3.413482666015625 18.47606086730957 2.999902725219727 18.06244087219238 2.999902725219727 17.55226135253906 L 2.999902725219727 0.9238014221191406 C 2.999902725219727 0.4135818481445312 3.413482666015625 1.9073486328125e-06 3.923713684082031 1.9073486328125e-06 Z" stroke="none" fill="#7967ad"/>
        </g>
      </g>
    </g>
  </g>
</svg>
