<svg id="Group_406" data-name="Group 406" xmlns="http://www.w3.org/2000/svg" width="80" height="80" viewBox="0 0 80 80">
    <circle id="Ellipse_13" data-name="Ellipse 13" cx="40" cy="40" r="40" fill="rgba(121,103,173,0.05)"/>
    <g id="XMLID_614_" transform="translate(17.608 17.615)">
        <g id="XMLID_2055_" transform="translate(3.086 1.212)">
            <g id="XMLID_1834_" transform="translate(8.11)">
                <circle id="XMLID_1850_" cx="11.196" cy="11.196" r="11.196" fill="#93E7F8"/>
            </g>
            <g id="XMLID_1750_" transform="translate(0 23.63)">
                <path id="XMLID_2188_" d="M40.557,331.719l-5.016,2.9a.512.512,0,0,0-.188.7l6.334,10.972a.512.512,0,0,0,.7.188l5.016-2.9a.512.512,0,0,0,.188-.7l-6.334-10.972A.512.512,0,0,0,40.557,331.719Z" transform="translate(-35.285 -327.49)" fill="#009FFF"/>
                <path id="XMLID_2187_" d="M40.557,331.719l-5.016,2.9a.512.512,0,0,0-.188.7l6.334,10.972a.512.512,0,0,0,.7.188l5.016-2.9a.512.512,0,0,0,.188-.7l-6.334-10.972A.512.512,0,0,0,40.557,331.719Z" transform="translate(-35.285 -327.49)" fill="#FF765B"/>
                <path id="XMLID_2154_" d="M113.786,290.056l5.812-2.991a6.426,6.426,0,0,1,4.5-.52l8.272,2.073a2.134,2.134,0,0,1,1.615,2.07h0a2.134,2.134,0,0,1-2.134,2.134h.753a2.3,2.3,0,0,0,1.629-.675l7.383-7.383a2.3,2.3,0,0,1,3.068-.166h0a2.3,2.3,0,0,1,.185,3.419l-7.78,7.781a6.492,6.492,0,0,1-4.591,1.9H118.366Z" transform="translate(-106.919 -284.09)" fill="#FED2A4"/>
                <path id="XMLID_2694_" d="M40.557,331.719l-5.016,2.9a.512.512,0,0,0-.188.7l6.334,10.972a.512.512,0,0,0,.7.188l5.016-2.9a.512.512,0,0,0,.188-.7l-6.334-10.972A.512.512,0,0,0,40.557,331.719Z" transform="translate(-35.285 -327.49)" fill="none"/>
            </g>
        </g>
        <g id="XMLID_592_" transform="translate(0 0)">
            <g id="XMLID_593_">
                <path id="XMLID_611_" d="M126.421,24.932A12.421,12.421,0,1,0,114,12.511,12.435,12.435,0,0,0,126.421,24.932Zm0-23.092a10.671,10.671,0,1,1-10.671,10.671A10.683,10.683,0,0,1,126.421,1.839Z" transform="translate(-104.028 -0.09)"/>
                <path id="XMLID_610_" d="M336.4,133.951h.743a.875.875,0,1,0,0-1.749H336.4a.875.875,0,0,0,0,1.749Z" transform="translate(-306.175 -120.646)"/>
                <path id="XMLID_609_" d="M150.476,132.853a.875.875,0,0,0-.875-.875h-.743a.875.875,0,0,0,0,1.749h.743A.875.875,0,0,0,150.476,132.853Z" transform="translate(-135.04 -120.442)"/>
                <path id="XMLID_608_" d="M246.987,36.565a.875.875,0,0,0,.875-.875v-.743a.875.875,0,1,0-1.749,0v.743A.875.875,0,0,0,246.987,36.565Z" transform="translate(-224.585 -31.101)"/>
                <path id="XMLID_607_" d="M246.763,221.613a.875.875,0,0,0-.875.875v.743a.875.875,0,1,0,1.749,0v-.743A.875.875,0,0,0,246.763,221.613Z" transform="translate(-224.38 -202.236)"/>
                <path id="XMLID_606_" d="M206.9,70.492l.01.01a.875.875,0,0,0,1.236,0l6.047-6.047a.875.875,0,0,0-1.237-1.237l-5.428,5.428-3.153-3.153a.875.875,0,0,0-1.237,1.237Z" transform="translate(-185.131 -57.461)"/>
                <path id="XMLID_604_" d="M64.479,274.773a3.17,3.17,0,0,0-4.234.229l-6.162,6.162a3,3,0,0,0-2.253-2.538l-8.272-2.072a7.3,7.3,0,0,0-5.115.59l-5.071,2.61-.478-.828A1.387,1.387,0,0,0,31,278.419l-5.016,2.9a1.389,1.389,0,0,0-.508,1.895l6.334,10.971a1.378,1.378,0,0,0,.842.646,1.379,1.379,0,0,0,1.053-.138l5.016-2.9a1.389,1.389,0,0,0,.508-1.895l-4.981-8.627,5-2.571a5.549,5.549,0,0,1,3.89-.449l8.272,2.072a1.259,1.259,0,0,1-.306,2.48H44.6a.875.875,0,1,0,0,1.749h7.255a3.157,3.157,0,0,0,2.247-.931l7.383-7.383a1.423,1.423,0,0,1,1.9-.1,1.425,1.425,0,0,1,.115,2.119l-7.78,7.78a5.58,5.58,0,0,1-3.972,1.645H44.608a.875.875,0,1,0,0,1.749h7.137a7.319,7.319,0,0,0,5.209-2.158l7.78-7.78a3.175,3.175,0,0,0-.255-4.719ZM36.132,291.266,33.958,287.5a.875.875,0,1,0-1.515.875l2.174,3.766-1.474.851-5.972-10.344,4.388-2.533,5.972,10.344Z" transform="translate(-23.077 -250.106)"/>
                <path id="XMLID_603_" d="M452.875,3.047a.875.875,0,0,0,.875-.875V.965a.875.875,0,0,0-1.749,0V2.173A.875.875,0,0,0,452.875,3.047Z" transform="translate(-412.463 -0.09)"/>
                <path id="XMLID_602_" d="M452.875,69.236a.875.875,0,0,0,.875-.875V67.154a.875.875,0,0,0-1.749,0v1.208A.875.875,0,0,0,452.875,69.236Z" transform="translate(-412.463 -60.489)"/>
                <path id="XMLID_601_" d="M480.271,40.09h-1.208a.875.875,0,0,0,0,1.749h1.208a.875.875,0,0,0,0-1.749Z" transform="translate(-436.361 -36.591)"/>
                <path id="XMLID_600_" d="M412.875,41.839h1.208a.875.875,0,1,0,0-1.749h-1.208a.875.875,0,1,0,0,1.749Z" transform="translate(-375.962 -36.591)"/>
                <path id="XMLID_599_" d="M40.875,209.047a.875.875,0,0,0,.875-.875v-1.208a.875.875,0,1,0-1.749,0v1.208A.875.875,0,0,0,40.875,209.047Z" transform="translate(-36.501 -188.071)"/>
                <path id="XMLID_598_" d="M40.875,275.236a.875.875,0,0,0,.875-.875v-1.208a.875.875,0,0,0-1.749,0v1.208A.875.875,0,0,0,40.875,275.236Z" transform="translate(-36.501 -248.47)"/>
                <path id="XMLID_597_" d="M67.063,247.839h1.208a.875.875,0,1,0,0-1.749H67.063a.875.875,0,1,0,0,1.749Z" transform="translate(-60.399 -224.572)"/>
                <path id="XMLID_596_" d="M2.958,246.965a.875.875,0,0,0-.875-.875H.875a.875.875,0,1,0,0,1.749H2.083A.875.875,0,0,0,2.958,246.965Z" transform="translate(0 -224.572)"/>
                <path id="XMLID_595_" d="M197.024,429.667a.875.875,0,1,0,.618.256A.879.879,0,0,0,197.024,429.667Z" transform="translate(-178.992 -392.092)"/>
                <path id="XMLID_594_" d="M85.985,388.213a.874.874,0,1,0,.618-.256A.881.881,0,0,0,85.985,388.213Z" transform="translate(-78.23 -354.03)"/>
            </g>
        </g>
    </g>
</svg>
