<svg xmlns="http://www.w3.org/2000/svg" xmlns:xlink="http://www.w3.org/1999/xlink" width="46" height="46" viewBox="0 0 46 46">
  <defs>
    <clipPath id="clip-path">
      <rect id="Rectangle_199" data-name="Rectangle 199" width="46" height="46" transform="translate(424 430)" fill="#fff" stroke="#707070" stroke-width="1"/>
    </clipPath>
  </defs>
  <g id="Mask_Group_590" data-name="Mask Group 590" transform="translate(-424 -430)" clip-path="url(#clip-path)">
    <g id="job-interview" transform="translate(424 430)">
      <g id="Group_709" data-name="Group 709">
        <g id="Group_692" data-name="Group 692">
          <path id="Path_986" data-name="Path 986" d="M37.824,10.061a1.452,1.452,0,0,0-1.452-1.452h-5a3.341,3.341,0,0,0-3.341,3.341v3.71H39.815V12a1.452,1.452,0,0,0-1.452-1.452h-.049a.49.49,0,0,1-.49-.49Z" fill="#efc984"/>
          <path id="Path_987" data-name="Path 987" d="M42.437,26.029l-4.776-1.4H30.185l-4.778,1.4a4.021,4.021,0,0,0-2.889,3.859V37.52H45.326V29.888a4.021,4.021,0,0,0-2.889-3.859Z" fill="#4a80aa"/>
          <g id="Group_680" data-name="Group 680">
            <path id="Path_988" data-name="Path 988" d="M42.437,26.029l-4.776-1.4H32.008L32,26l4.776,1.4a4.022,4.022,0,0,1,2.889,3.859V37.52h5.657V29.888A4.021,4.021,0,0,0,42.437,26.029Z" fill="#407093"/>
          </g>
          <path id="Path_989" data-name="Path 989" d="M36.625,37.52,34.87,29.7h-1.9L31.214,37.52Z" fill="#dd636e"/>
          <g id="Group_690" data-name="Group 690">
            <g id="Group_687" data-name="Group 687">
              <g id="Group_686" data-name="Group 686">
                <g id="Group_685" data-name="Group 685">
                  <g id="Group_684" data-name="Group 684">
                    <g id="Group_683" data-name="Group 683">
                      <g id="Group_682" data-name="Group 682">
                        <g id="Group_681" data-name="Group 681">
                          <path id="Path_990" data-name="Path 990" d="M36.545,25.947V21.729H31.3v4.218c0,1.449,2.624,1.578,2.624,1.578S36.545,27.4,36.545,25.947Z" fill="#ffddce"/>
                        </g>
                      </g>
                    </g>
                  </g>
                </g>
              </g>
            </g>
            <path id="Path_991" data-name="Path 991" d="M39.815,15.173h-1a1.01,1.01,0,0,1-1.01-1.01V13.61A1.066,1.066,0,0,0,36.4,12.6a7.9,7.9,0,0,1-4.956,0h0a1.066,1.066,0,0,0-1.4,1.013v.553a1.01,1.01,0,0,1-1.01,1.01h-1v1.652a.764.764,0,0,0,.764.764.251.251,0,0,1,.25.237,4.889,4.889,0,0,0,9.758,0,.251.251,0,0,1,.25-.237.764.764,0,0,0,.764-.764Z" fill="#ffddce"/>
            <g id="Group_688" data-name="Group 688">
              <path id="Path_992" data-name="Path 992" d="M38.363,10.551h-.049a.49.49,0,0,1-.49-.49,1.452,1.452,0,0,0-1.452-1.452H34.131V15.66h5.684V12a1.452,1.452,0,0,0-1.452-1.452Z" fill="#eabc6b"/>
            </g>
            <g id="Group_689" data-name="Group 689">
              <path id="Path_993" data-name="Path 993" d="M38.811,15.173a1.01,1.01,0,0,1-1.01-1.01V13.61A1.066,1.066,0,0,0,36.4,12.6a7.9,7.9,0,0,1-2.27.395V18.4a4.779,4.779,0,0,1-1.763,3.753A4.889,4.889,0,0,0,38.8,17.827a.251.251,0,0,1,.25-.237.764.764,0,0,0,.764-.764V15.173Z" fill="#ffcbbe"/>
            </g>
          </g>
          <g id="Group_691" data-name="Group 691">
            <path id="Path_994" data-name="Path 994" d="M30.274,24.347l-.747.335a.668.668,0,0,0-.2,1.082l2.07,2.073a.715.715,0,0,0,.957.036l1.623-1.356L31.21,24.451a.929.929,0,0,0-.936-.1Z" fill="#365e7d"/>
            <path id="Path_995" data-name="Path 995" d="M36.631,24.464l-2.653,2.055,1.525,1.3a.715.715,0,0,0,.96-.028l2.071-2.016a.668.668,0,0,0-.194-1.089l-.762-.339a.928.928,0,0,0-.946.114Z" fill="#365e7d"/>
          </g>
        </g>
        <path id="Path_996" data-name="Path 996" d="M43.461,45.284H11.29V35.789H45.326v7.63A1.865,1.865,0,0,1,43.461,45.284Z" fill="#ddb7a0"/>
        <path id="Path_997" data-name="Path 997" d="M39.635,35.789V44.3a.983.983,0,0,1-.983.983h4.809a1.865,1.865,0,0,0,1.865-1.865v-7.63Z" fill="#d6a889"/>
        <g id="Group_707" data-name="Group 707">
          <g id="Group_706" data-name="Group 706">
            <g id="Group_705" data-name="Group 705">
              <g id="Group_704" data-name="Group 704">
                <g id="Group_703" data-name="Group 703">
                  <g id="Group_702" data-name="Group 702">
                    <g id="Group_701" data-name="Group 701">
                      <g id="Group_700" data-name="Group 700">
                        <g id="Group_699" data-name="Group 699">
                          <g id="Group_698" data-name="Group 698">
                            <g id="Group_697" data-name="Group 697">
                              <g id="Group_696" data-name="Group 696">
                                <g id="Group_695" data-name="Group 695">
                                  <g id="Group_694" data-name="Group 694">
                                    <g id="Group_693" data-name="Group 693">
                                      <path id="Path_998" data-name="Path 998" d="M14.315,33.265v-4.1h-5.1v4.1c0,1.409,2.552,1.535,2.552,1.535S14.315,34.675,14.315,33.265Z" fill="#ffddce"/>
                                    </g>
                                  </g>
                                </g>
                              </g>
                            </g>
                          </g>
                        </g>
                      </g>
                    </g>
                  </g>
                </g>
              </g>
            </g>
          </g>
          <path id="Path_999" data-name="Path 999" d="M19.06,25.441a11.965,11.965,0,0,1-.5-3.432v0a6.792,6.792,0,0,0-13.584,0v0a11.965,11.965,0,0,1-.5,3.432,7.275,7.275,0,0,0-.306,2.087,3,3,0,0,0,2.017,2.836,17.03,17.03,0,0,0,11.171,0,3,3,0,0,0,2.017-2.836,7.278,7.278,0,0,0-.307-2.087Z" fill="#407093"/>
          <path id="Path_1000" data-name="Path 1000" d="M19.06,25.441a11.966,11.966,0,0,1-.5-3.432v0a6.792,6.792,0,0,0-9.634-6.167,6.792,6.792,0,0,1,3.95,6.167v0a11.965,11.965,0,0,0,.5,3.432,7.275,7.275,0,0,1,.306,2.087,3,3,0,0,1-2.017,2.836,17.023,17.023,0,0,1-2.743.7,17.03,17.03,0,0,0,8.427-.7,3,3,0,0,0,2.017-2.836,7.275,7.275,0,0,0-.306-2.087Z" fill="#365e7d"/>
        </g>
        <path id="Path_1001" data-name="Path 1001" d="M5.736.675H23.121A1.977,1.977,0,0,1,25.1,2.652V10.11a1.977,1.977,0,0,1-1.567,1.934.285.285,0,0,0-.223.28v2.559a.349.349,0,0,1-.6.247l-2.959-2.959a.288.288,0,0,0-.2-.084H5.736A1.977,1.977,0,0,1,3.76,10.11V2.652A1.977,1.977,0,0,1,5.736.675Z" fill="#cbe2ff"/>
        <path id="Path_1002" data-name="Path 1002" d="M23.121.675H17.39a1.977,1.977,0,0,1,1.977,1.977V10.11A1.977,1.977,0,0,1,17.8,12.044a.273.273,0,0,0-.1.043H19.55a.288.288,0,0,1,.2.084l2.959,2.959a.349.349,0,0,0,.6-.247V12.324a.285.285,0,0,1,.223-.28A1.977,1.977,0,0,0,25.1,10.11V2.652A1.977,1.977,0,0,0,23.121.675Z" fill="#bed8fb"/>
        <path id="Path_1003" data-name="Path 1003" d="M20.045,33.345l-5.73-1.091a2.747,2.747,0,0,1-5.1,0l-.006-.015L3.483,33.346A3.911,3.911,0,0,0,.674,37.1V43.46a1.865,1.865,0,0,0,1.869,1.865l19.465-.039a.848.848,0,0,0,.847-.848V37.1a3.911,3.911,0,0,0-2.809-3.752Z" fill="#e28086"/>
        <path id="Path_1004" data-name="Path 1004" d="M22.013,45.291a.848.848,0,0,0,.842-.848V37.1a3.911,3.911,0,0,0-2.809-3.752l-5.73-1.091a2.7,2.7,0,0,1-2.534,1.721,1.92,1.92,0,0,0,1.544,1.643l1.036.2c1.833.394,2.809,1.232,2.809,2.967v6.546Z" fill="#dd636e"/>
        <g id="Group_708" data-name="Group 708">
          <path id="Path_1005" data-name="Path 1005" d="M35.5,27.822l-1.525-1.3-1.623,1.356a.713.713,0,0,1-.354.158l.969,1.664h1.9l.958-1.717a.71.71,0,0,1-.325-.157Z" fill="#e28086"/>
        </g>
      </g>
      <g id="Group_710" data-name="Group 710">
        <path id="Path_1006" data-name="Path 1006" d="M5.737,12.761H19.39l2.846,2.846a1.023,1.023,0,0,0,1.746-.723V12.617a2.664,2.664,0,0,0,1.789-2.507V2.651A2.654,2.654,0,0,0,23.121,0H5.737A2.654,2.654,0,0,0,3.086,2.651V3.2a.674.674,0,1,0,1.348,0V2.651a1.3,1.3,0,0,1,1.3-1.3H23.121a1.3,1.3,0,0,1,1.3,1.3V10.11a1.308,1.308,0,0,1-1.032,1.275.962.962,0,0,0-.758.94V14.1l-2.4-2.4a.955.955,0,0,0-.68-.282H5.737a1.3,1.3,0,0,1-1.3-1.3V6.352a.674.674,0,0,0-1.348,0V10.11a2.654,2.654,0,0,0,2.651,2.651Z"/>
        <path id="Path_1007" data-name="Path 1007" d="M45.326,31.08A.674.674,0,0,0,46,30.407v-.519a4.721,4.721,0,0,0-3.373-4.505L38.974,24.31a1.341,1.341,0,0,0-.361-.236l-.762-.339a1.6,1.6,0,0,0-.632-.139v-1.6a5.558,5.558,0,0,0,2.222-3.783,1.441,1.441,0,0,0,1.047-1.384V12a2.128,2.128,0,0,0-2-2.122,2.128,2.128,0,0,0-2.118-1.946h-5a4.019,4.019,0,0,0-4.015,4.015v4.875A1.441,1.441,0,0,0,28.4,18.209a5.56,5.56,0,0,0,2.222,3.782v1.6a1.6,1.6,0,0,0-.625.14l-.747.335a1.34,1.34,0,0,0-.358.236l-3.676,1.079a4.721,4.721,0,0,0-3.373,4.505v3.659a4.58,4.58,0,0,0-1.61-.848c-.059-.017.286.052-5.246-1v-.015A17.574,17.574,0,0,0,17.57,31c1.871-.649,3.088-2.574,2.135-5.754a11.288,11.288,0,0,1-.476-3.242,7.475,7.475,0,0,0-7.466-7.464h0A7.476,7.476,0,0,0,4.3,22.009a11.285,11.285,0,0,1-.475,3.239C2.879,28.4,4.059,30.342,5.958,31a17.571,17.571,0,0,0,2.58.681c-5.508,1.066-5.186,1-5.244,1.017A4.609,4.609,0,0,0,0,37.1V43.46A2.538,2.538,0,0,0,2.539,46h.005l40.916-.041A2.542,2.542,0,0,0,46,43.419V33.557a.674.674,0,1,0-1.348,0v1.559H36.776L35.584,29.8l.645-1.156a1.4,1.4,0,0,0,.7-.367L39,26.261a1.342,1.342,0,0,0,.3-.448l2.941.863a3.366,3.366,0,0,1,2.4,3.212v.519a.674.674,0,0,0,.674.674ZM28.7,11.95a2.67,2.67,0,0,1,2.667-2.667h5a.779.779,0,0,1,.778.778,1.165,1.165,0,0,0,1.164,1.164h.049a.779.779,0,0,1,.778.778v2.5h-.329a.337.337,0,0,1-.336-.336V13.61a1.742,1.742,0,0,0-2.286-1.652,7.275,7.275,0,0,1-4.535,0,1.739,1.739,0,0,0-2.286,1.652v.553a.337.337,0,0,1-.336.336H28.7V11.95Zm1.013,5.834a.927.927,0,0,0-.923-.868.091.091,0,0,1-.09-.09v-.978h.329a1.686,1.686,0,0,0,1.684-1.684V13.61a.392.392,0,0,1,.518-.372,8.628,8.628,0,0,0,5.379,0,.392.392,0,0,1,.516.373v.553a1.686,1.686,0,0,0,1.684,1.684h.329v.978a.091.091,0,0,1-.091.09.927.927,0,0,0-.922.869,4.215,4.215,0,0,1-8.413,0Zm4.76,11.238H33.356l-.434-.745,1.05-.877.953.815Zm.92,6.093h-2.95l1.064-4.745h.822ZM33.97,25.672l-2-1.494V22.725a5.554,5.554,0,0,0,3.9,0V24.2Zm-3.42-.709a.255.255,0,0,1,.257.028l2.084,1.557-.969.809a.042.042,0,0,1-.016.008H31.9a.041.041,0,0,1-.029-.01l-2.058-2.062ZM6.4,29.728c-1.7-.591-1.8-2.374-1.286-4.094a12.637,12.637,0,0,0,.532-3.628,6.118,6.118,0,0,1,12.237,0,12.631,12.631,0,0,0,.532,3.625c.516,1.721.417,3.5-1.286,4.094a16.424,16.424,0,0,1-10.729,0Zm7.241,2.149v.238A2.074,2.074,0,0,1,9.885,32.1v-.224A17.857,17.857,0,0,0,13.641,31.877Zm8.539,12.56a.173.173,0,0,1-.167.173H21.99l-19.448.039h0A1.191,1.191,0,0,1,1.348,43.46V37.1a3.255,3.255,0,0,1,2.3-3.1l5.191-1a3.425,3.425,0,0,0,5.855.015l5.2.989a3.238,3.238,0,0,1,2.3,3.1Zm1.012-14.549a3.366,3.366,0,0,1,2.4-3.212l2.964-.87a1.34,1.34,0,0,0,.29.435l2.07,2.073.007.007a1.387,1.387,0,0,0,.672.363l.654,1.124-1.191,5.309H23.192Zm21.46,6.575v6.956a1.193,1.193,0,0,1-1.192,1.192H23.519a1.545,1.545,0,0,0,.01-.173V37.1a4.577,4.577,0,0,0-.044-.635ZM36,27.309a.041.041,0,0,1-.028.011l-.016,0-.011-.007-.9-.766,2-1.548a.254.254,0,0,1,.26-.031l.754.336Z"/>
      </g>
    </g>
  </g>
</svg>
