<svg xmlns="http://www.w3.org/2000/svg" xmlns:xlink="http://www.w3.org/1999/xlink" width="24" height="24" viewBox="0 0 24 24">
  <defs>
    <clipPath id="clip-path">
      <rect id="Rectangle_172" data-name="Rectangle 172" width="24" height="24" transform="translate(1195 308)" fill="#fff" stroke="#707070" stroke-width="1"/>
    </clipPath>
  </defs>
  <g id="Mask_Group_581" data-name="Mask Group 581" transform="translate(-1195 -308)" clip-path="url(#clip-path)">
    <g id="user_1_" data-name="user (1)" transform="translate(1195 308)">
      <g id="Group_637" data-name="Group 637">
        <g id="Group_636" data-name="Group 636">
          <path id="Path_945" data-name="Path 945" d="M12,0a6.328,6.328,0,1,0,6.328,6.328A6.335,6.335,0,0,0,12,0Z" fill="#7967ad"/>
        </g>
      </g>
      <g id="Group_639" data-name="Group 639">
        <g id="Group_638" data-name="Group 638">
          <path id="Path_946" data-name="Path 946" d="M19.873,16.79a9.021,9.021,0,0,0-6.467-2.728H10.594A9.021,9.021,0,0,0,4.127,16.79,9.222,9.222,0,0,0,1.453,23.3a.7.7,0,0,0,.7.7H21.844a.7.7,0,0,0,.7-.7A9.222,9.222,0,0,0,19.873,16.79Z" fill="#7967ad"/>
        </g>
      </g>
    </g>
  </g>
</svg>
