<svg xmlns="http://www.w3.org/2000/svg" xmlns:xlink="http://www.w3.org/1999/xlink" width="24" height="24" viewBox="0 0 24 24">
  <defs>
    <clipPath id="clip-path">
      <rect id="Rectangle_173" data-name="Rectangle 173" width="24" height="24" transform="translate(1195 371)" fill="#fff" stroke="#707070" stroke-width="1"/>
    </clipPath>
  </defs>
  <g id="Mask_Group_582" data-name="Mask Group 582" transform="translate(-1195 -371)" clip-path="url(#clip-path)">
    <g id="telephone_1_" data-name="telephone (1)" transform="translate(1195 371)">
      <g id="Group_640" data-name="Group 640">
        <path id="Path_947" data-name="Path 947" d="M18.246,15.876a1.682,1.682,0,0,0-2.542,0c-.594.589-1.189,1.179-1.773,1.778a.35.35,0,0,1-.489.09c-.385-.21-.794-.38-1.164-.609A18.437,18.437,0,0,1,7.834,13.09,10.53,10.53,0,0,1,6.24,10.538a.366.366,0,0,1,.09-.469C6.925,9.494,7.5,8.9,8.088,8.315a1.688,1.688,0,0,0,0-2.6c-.464-.469-.929-.929-1.393-1.4s-.954-.964-1.438-1.438a1.692,1.692,0,0,0-2.542,0c-.6.589-1.174,1.194-1.783,1.773A2.894,2.894,0,0,0,.018,6.607a8.273,8.273,0,0,0,.639,3.561,21.638,21.638,0,0,0,3.841,6.4,23.766,23.766,0,0,0,7.871,6.158,11.383,11.383,0,0,0,4.36,1.269,3.2,3.2,0,0,0,2.742-1.044c.509-.569,1.084-1.089,1.623-1.633a1.7,1.7,0,0,0,.01-2.587Q19.68,17.3,18.246,15.876Z" fill="#7967ad"/>
        <path id="Path_948" data-name="Path 948" d="M17.293,11.9l1.843-.315a8.272,8.272,0,0,0-7-6.787l-.26,1.853A6.393,6.393,0,0,1,17.293,11.9Z" fill="#7967ad"/>
        <path id="Path_949" data-name="Path 949" d="M20.174,3.885A13.588,13.588,0,0,0,12.383,0l-.26,1.853a11.857,11.857,0,0,1,10.033,9.724L24,11.262A13.688,13.688,0,0,0,20.174,3.885Z" fill="#7967ad"/>
      </g>
    </g>
  </g>
</svg>
