<svg xmlns="http://www.w3.org/2000/svg" xmlns:xlink="http://www.w3.org/1999/xlink" width="46" height="46" viewBox="0 0 46 46">
  <defs>
    <clipPath id="clip-path">
      <rect id="Rectangle_198" data-name="Rectangle 198" width="46" height="46" transform="translate(424 228)" fill="#fff" stroke="#707070" stroke-width="1"/>
    </clipPath>
  </defs>
  <g id="Mask_Group_589" data-name="Mask Group 589" transform="translate(-424 -228)" clip-path="url(#clip-path)">
    <g id="resume" transform="translate(419.638 225.621)">
      <path id="Path_969" data-name="Path 969" d="M38.069,3.966h3.172V46.793H38.069Z" fill="#4dbed5"/>
      <path id="Path_970" data-name="Path 970" d="M7.931,2.379H38.862V46.793H7.931Z" fill="#93e7f8"/>
      <g id="Group_679" data-name="Group 679">
        <path id="Path_971" data-name="Path 971" d="M11.1,5.552h11.1v11.9H11.1Z" fill="#3b3b3b"/>
        <path id="Path_972" data-name="Path 972" d="M24.586,12.69h11.9v1.586h-11.9Z" fill="#3b3b3b"/>
        <path id="Path_973" data-name="Path 973" d="M24.586,16.655h11.9v1.586h-11.9Z" fill="#3b3b3b"/>
        <path id="Path_974" data-name="Path 974" d="M10.31,20.621h7.931v1.586H10.31Z" fill="#3b3b3b"/>
        <path id="Path_975" data-name="Path 975" d="M19.828,20.621h12.69v1.586H19.828Z" fill="#3b3b3b"/>
        <path id="Path_976" data-name="Path 976" d="M10.31,24.586H27.759v1.586H10.31Z" fill="#3b3b3b"/>
        <path id="Path_977" data-name="Path 977" d="M10.31,28.552h7.931v1.586H10.31Z" fill="#3b3b3b"/>
        <path id="Path_978" data-name="Path 978" d="M19.828,28.552h9.517v1.586H19.828Z" fill="#3b3b3b"/>
        <path id="Path_979" data-name="Path 979" d="M29.345,32.517h2.379V34.1H29.345Z" fill="#3b3b3b"/>
        <path id="Path_980" data-name="Path 980" d="M10.31,32.517H27.759V34.1H10.31Z" fill="#3b3b3b"/>
        <path id="Path_981" data-name="Path 981" d="M25.379,5.552H35.69V9.517H25.379Z" fill="#3b3b3b"/>
        <rect id="Rectangle_200" data-name="Rectangle 200" width="6.345" height="6.345" rx="3.172" transform="translate(11.103 37.276)" fill="#3b3b3b"/>
      </g>
      <rect id="Rectangle_201" data-name="Rectangle 201" width="6.345" height="6.345" rx="3.172" transform="translate(20.621 37.276)" fill="#999"/>
      <rect id="Rectangle_202" data-name="Rectangle 202" width="6.345" height="6.345" rx="3.172" transform="translate(20.621 37.276)" fill="#3b3b3b"/>
      <path id="Path_982" data-name="Path 982" d="M37.276,48.379V35.69l-7.138-9.517.869-.7a3.966,3.966,0,0,1,5.574.619l.7.869h1.586V14.276h1.029a2.974,2.974,0,0,1,2.822,2.034l4.081,12.242v1.586l-2.379,6.345v11.9Z" fill="#e7c0a5" stroke="#3b3b3b" stroke-width="1"/>
      <path id="Path_983" data-name="Path 983" d="M29.345,38.069H35.69v1.586H29.345Z" fill="#3b3b3b"/>
      <path id="Path_984" data-name="Path 984" d="M29.345,41.241h1.586v1.586H29.345Z" fill="#3b3b3b"/>
      <path id="Path_985" data-name="Path 985" d="M32.517,41.241H35.69v1.586H32.517Z" fill="#3b3b3b"/>
    </g>
  </g>
</svg>
