<svg xmlns="http://www.w3.org/2000/svg" width="95" height="87" viewBox="0 0 95 87">
  <g id="XMLID_4_" transform="translate(0 -20)">
    <g id="XMLID_73_" transform="translate(29.464 41.464)">
      <g id="XMLID_1326_" transform="translate(0 0)">
        <path id="XMLID_2748_" d="M0,0H63.685V63.685H0Z" transform="translate(63.685 63.685) rotate(180)" fill="#ffce69"/>
      </g>
      <g id="XMLID_1391_" transform="translate(31.922 32.913)">
        <path id="XMLID_2736_" d="M330.429,315.781h19.254v8.146H330.429Z" transform="translate(-330.429 -315.781)" fill="#fff"/>
      </g>
      <g id="XMLID_1847_" transform="translate(23.697 0)">
        <path id="XMLID_1846_" d="M294.146,148.583,286,156.76V138h16.291v18.76Z" transform="translate(-286 -138)" fill="#fff"/>
      </g>
    </g>
    <g id="XMLID_1222_" transform="translate(13.977 21.851)">
      <circle id="XMLID_2731_" cx="15.273" cy="15.273" r="15.273" fill="#a0e5a5"/>
    </g>
    <g id="XMLID_2177_" transform="translate(0 20)">
      <path id="XMLID_2733_" d="M121.323,39.907H74.408A17.175,17.175,0,1,0,55.629,54V77.837H36.437a1.843,1.843,0,1,0,0,3.686H55.629v23.634A1.849,1.849,0,0,0,57.485,107H82.723a1.843,1.843,0,1,0,0-3.686H59.341V54A17.2,17.2,0,0,0,73.335,43.593h6.048V60.428a1.843,1.843,0,0,0,1.147,1.7,1.864,1.864,0,0,0,2.023-.4L89.4,54.9l6.851,6.83a1.865,1.865,0,0,0,2.023.4,1.843,1.843,0,0,0,1.147-1.7V43.593h20.042v59.72H99.425a1.843,1.843,0,1,0,0,3.686h21.9a1.85,1.85,0,0,0,1.856-1.843V41.75A1.85,1.85,0,0,0,121.323,39.907ZM57.485,50.413A13.364,13.364,0,1,1,70.939,37.05,13.424,13.424,0,0,1,57.485,50.413Zm38.229,5.553-4.995-4.98a1.865,1.865,0,0,0-2.629,0l-4.995,4.98V43.593H95.714Z" transform="translate(-28.179 -20)"/>
      <path id="XMLID_2735_" d="M367.622,399.632a1.851,1.851,0,0,0-1.851-1.851H352.023a1.851,1.851,0,1,0,0,3.7h13.747A1.851,1.851,0,0,0,367.622,399.632Z" transform="translate(-285.131 -328.224)"/>
      <path id="XMLID_2739_" d="M341.534,317.629a1.851,1.851,0,0,0,1.851-1.851v-8.146a1.851,1.851,0,0,0-1.851-1.851H322.28a1.851,1.851,0,0,0-1.851,1.851v8.146a1.851,1.851,0,0,0,1.851,1.851Zm-17.4-8.146h15.551v4.443H324.132Z" transform="translate(-260.895 -253.142)"/>
      <path id="XMLID_2740_" d="M1.851,273.484h3.2a1.851,1.851,0,0,0,0-3.7h-3.2a1.851,1.851,0,0,0,0,3.7Z" transform="translate(0 -223.75)"/>
      <path id="XMLID_2741_" d="M74.583,273.484a1.851,1.851,0,0,0,0-3.7H69.069a1.851,1.851,0,1,0,0,3.7Z" transform="translate(-54.774 -223.75)"/>
      <path id="XMLID_2742_" d="M19.809,397.781H1.851a1.851,1.851,0,0,0,0,3.7H19.809a1.851,1.851,0,0,0,0-3.7Z" transform="translate(0 -328.224)"/>
      <path id="XMLID_2743_" d="M330.851,472a1.852,1.852,0,1,0,1.309.542A1.865,1.865,0,0,0,330.851,472Z" transform="translate(-267.95 -388.703)"/>
      <path id="XMLID_2744_" d="M141.049,88.416l-3.828,3.828-1.29-1.291a1.851,1.851,0,0,0-2.618,2.618l2.6,2.6a1.851,1.851,0,0,0,2.618,0l5.137-5.137a1.851,1.851,0,1,0-2.618-2.618Z" transform="translate(-108.128 -75.308)"/>
    </g>
  </g>
</svg>
