<svg xmlns="http://www.w3.org/2000/svg" xmlns:xlink="http://www.w3.org/1999/xlink" width="14" height="14" viewBox="0 0 14 14">
  <defs>
    <clipPath id="clip-path">
      <rect id="Rectangle_37" data-name="Rectangle 37" width="14" height="14" transform="translate(708.899 4045)" fill="#fff" stroke="#707070" stroke-width="1"/>
    </clipPath>
  </defs>
  <g id="Mask_Group_5" data-name="Mask Group 5" transform="translate(-708.899 -4045)" clip-path="url(#clip-path)">
    <g id="underground" transform="translate(708.899 4045)">
      <g id="Layer_1_21_">
        <path id="Path_865" data-name="Path 865" d="M12.453,13.112,10.4,9.374a1.216,1.216,0,0,0,1.011-1.195V2.665A2.667,2.667,0,0,0,8.746,0H5.254a2.7,2.7,0,0,0-2.7,2.7V8.179A1.192,1.192,0,0,0,3.569,9.374L1.547,13.112a.6.6,0,0,0,.245.827A.455.455,0,0,0,2.068,14a.593.593,0,0,0,.521-.306l.184-.306h8.455l.184.306a.569.569,0,0,0,.521.306.894.894,0,0,0,.276-.061A.6.6,0,0,0,12.453,13.112Zm-2.88-2.757H4.427l.521-.95H9.053ZM9.481,8.3a.888.888,0,1,1,.888-.888A.909.909,0,0,1,9.481,8.3ZM3.63,3.033A1.706,1.706,0,0,1,5.315,1.317H8.654A1.733,1.733,0,0,1,10.37,3.033V4.5a.589.589,0,0,1-.613.582H4.243A.582.582,0,0,1,3.661,4.5L3.63,3.033Zm.888,3.462a.888.888,0,1,1-.888.888A.889.889,0,0,1,4.519,6.495ZM3.263,12.468l.674-1.195h6.127l.674,1.195Z" fill="#7967ad"/>
      </g>
    </g>
  </g>
</svg>
